<?xml version="1.0" standalone="no"?>
<!DOCTYPE svg PUBLIC "-//W3C//DTD SVG 1.1//EN" "http://www.w3.org/Graphics/SVG/1.1/DTD/svg11.dtd" >
<svg xmlns="http://www.w3.org/2000/svg">
<metadata>Generated by IcoMoon</metadata>
<defs>
<font id="domenus" horiz-adv-x="1024">
<font-face units-per-em="1024" ascent="960" descent="-64" />
<missing-glyph horiz-adv-x="1024" />
<glyph unicode="&#x20;" horiz-adv-x="512" d="" />
<glyph unicode="&#xe047;" glyph-name="small-chek" d="M401.306-63.795c0 0 150.118 296.448 322.867 552.96 133.427 198.042 299.725 371.405 299.725 371.405s-34.714 98.816-34.714 98.816c0 0-197.222-140.186-357.069-312.422-162.099-174.592-286.72-381.338-286.72-381.338s-244.736 234.598-244.736 234.598c0 0-100.25-109.056-100.25-109.056s400.896-454.963 400.896-454.963z" />
<glyph unicode="&#xe048;" glyph-name="close-modal" d="M126.976 38.4c-6.144 0-12.288 2.048-18.432 8.192-10.24 10.24-10.24 24.576 0 34.816l770.048 768c10.24 10.24 24.576 10.24 34.816 0s10.24-24.576 0-34.816l-768-768c-6.144-6.144-12.288-8.192-18.432-8.192v0zM897.024 38.4c-6.144 0-12.288 2.048-18.432 8.192l-768 768c-10.24 10.24-10.24 24.576 0 34.816s24.576 10.24 34.816 0l770.048-770.048c10.24-10.24 10.24-24.576 0-34.816-6.144-4.096-12.288-6.144-18.432-6.144v0z" />
<glyph unicode="&#xe049;" glyph-name="SBIS" d="M860.983 547.493l-148.329-58.459 90.936 151.491 57.393-93.032zM519.2 26.553l3.162 338.278 338.69 0.619-341.852-338.896zM873.218 516.185l-5.533-120.698-299.030 0.687 304.563 120.011zM696.604 822.741l87.637-149.36-120.87-203.764-122.966-48.458 156.199 401.582zM911.744 886.115l-106.985-179.122-91.383 157.677 198.368 21.445zM484.661 1.293l-165.066 1.065-196.1 216.858 365.084 145.339-3.918-363.263zM206.079 493.537l-77.086 38.182c21.651 10.001 99.425 43.887 99.425 43.887l107.638-64.954-0.653-171.493-212.184-83.616 82.86 237.994zM974.052 929.28l-284.458-31.274-189.123-492.587-134.273-54.129-2.2 180.119-135.167 82.31c0 0-164.138-81.347-178.882-80.351l113.137-56.019-88.187-259.439 231.739-251.191h198.884l395.808 392.234 5.774 173.555-83.547 142.453 150.495 254.318z" />
<glyph unicode="&#xe050;" glyph-name="e-mail" d="M1015.417 695.75l-260.985-251.585 261.232-252.228c1.237-0.99 1.979-1.979 3.216-3.068v510.195c-1.237-1.187-2.226-2.078-3.463-3.315zM700.206 391.919l-52.494-50.911c-36.909-35.375-84.703-52.494-131.754-52.494s-94.598 17.119-131.754 52.494l-60.657 58.975-268.406-258.66c-13.111-12.369-19.79-23.402-22.264-29.092h953.301c-3.958 5.69-9.153 12.616-17.317 20.434l-268.654 259.253zM323.547 504.477l54.226-52.246 53.483-51.752c22.561-21.571 53.285-33.446 84.703-33.446 31.467 0 62.389 11.874 84.703 33.446l45.518 43.687 54.028 52.246 268.406 258.511c12.864 12.616 19.543 23.006 22.264 28.844h-952.806c3.711-5.541 8.906-12.517 17.069-20.186l268.406-259.105zM8.089 704.409c-0.99 0.99-1.732 2.127-2.969 3.216v-510.442c1.237 1.237 1.979 2.078 3.216 3.216l260.985 251.832-261.232 252.178z" />
<glyph unicode="&#xe051;" glyph-name="print" d="M232.575 552.128h343.501v-41.079h-343.501v41.079zM232.575 634.335h343.501v-41.233h-343.501v41.233zM232.575 716.755h343.501v-41.341h-343.501v41.341zM232.575 798.754h343.501v-41.079h-343.501v41.079zM539.42 883.773l69.832-58.758h-69.832v58.758zM232.575 452.187v17.991h343.451v-17.991h52.256v381.406l-77.27 65.206h-389.83v-446.612h71.392zM833.905 152.416h-644.208c-42.743 0-77.634-34.787-77.634-77.738 0-42.743 34.891-77.478 77.634-77.478h644.208c42.847 0 77.738 34.735 77.738 77.478 0 42.951-34.891 77.738-77.738 77.738zM872.193 320.808c-33.331 0-60.578 26.779-60.578 60.266 0 33.227 27.247 60.474 60.578 60.474 33.227 0 60.214-27.247 60.214-60.474 0-33.487-26.987-60.266-60.214-60.266zM932.407 510.55h-267.376v-95.105h-539.119v95.105h-34.631c-47.786 0-86.161-38.635-86.161-86.421v-293.323c0-43.575 32.395-79.245 74.306-85.017-2.444 9.152-4.004 19.031-4.004 28.911v18.979h1.664c9.152 54.13 56.262 95.365 112.628 95.365h644.208c63.022 0 114.24-51.166 114.24-114.344 0-9.88-1.404-19.759-3.848-28.911 42.015 5.772 74.566 41.443 74.566 85.017v293.323c0 47.786-38.791 86.421-86.473 86.421z" />
<glyph unicode="&#xe052;" glyph-name="dogovor" d="M849.92-15.278h-675.84v882.952h122c7.412-31.176 35.362-54.503 68.761-54.503h294.317c33.4 0 61.349 23.327 68.761 54.503h122v-882.952zM364.842 911.277h294.317c15.043 0 27.252-12.209 27.252-27.252s-12.209-27.252-27.252-27.252h-294.317c-15.043 0-27.252 12.209-27.252 27.252s12.209 27.252 27.252 27.252zM871.722 911.277h-147.202c-10.683 25.595-35.929 43.603-65.36 43.603h-294.317c-29.432 0-54.678-18.008-65.36-43.603h-147.202c-12.034 0-21.801-9.767-21.801-21.801v-926.555c0-12.034 9.767-21.801 21.801-21.801h719.443c12.034 0 21.801 9.767 21.801 21.801v926.555c0 12.034-9.767 21.801-21.801 21.801zM363.651 643.269h-50.317c-11.162 0-20.188-9.026-20.188-20.188v-50.317c0-11.075 9.026-20.101 20.188-20.101h50.317c11.162 0 20.101 9.026 20.101 20.101v50.317c0 11.162-8.939 20.188-20.101 20.188zM450.857 619.768c-12.034 0-21.801-9.767-21.801-21.801s9.767-21.801 21.801-21.801h280.016c12.034 0 21.801 9.767 21.801 21.801s-9.767 21.801-21.801 21.801h-280.016zM363.651 344.099h-50.317c-11.162 0-20.188-8.939-20.188-20.101v-50.317c0-11.162 9.026-20.188 20.188-20.188h50.317c11.162 0 20.101 9.026 20.101 20.188v50.317c0 11.162-8.939 20.101-20.101 20.101zM730.864 320.597h-280.016c-12.034 0-21.801-9.767-21.801-21.801s9.767-21.801 21.801-21.801h280.016c12.034 0 21.801 9.767 21.801 21.801s-9.767 21.801-21.801 21.801zM363.651 493.73h-50.317c-11.162 0-20.188-9.026-20.188-20.188v-50.317c0-11.075 9.026-20.188 20.188-20.188h50.317c11.162 0 20.101 9.113 20.101 20.188v50.317c0 11.162-8.939 20.188-20.101 20.188zM730.864 470.137h-280.016c-12.034 0-21.801-9.767-21.801-21.801s9.767-21.801 21.801-21.801h280.016c12.034 0 21.801 9.767 21.801 21.801s-9.767 21.801-21.801 21.801z" />
<glyph unicode="&#xe053;" glyph-name="juridic-questions" d="M812.219-15.696l-600.308-0.129c-18.47 0-33.496 15.069-33.496 33.496l-0.129 738.082c18.944-14.897 42.538-24.11 68.457-24.11h68.586c-9.3-2.368-16.275-10.419-16.275-20.494l0.086-423.354c0-7.276 3.66-14.036 9.73-18.040 6.2-3.918 13.82-4.65 20.451-1.679l86.023 37.802 86.023-37.759c2.755-1.206 5.726-1.808 8.654-1.808 4.133 0 8.223 1.206 11.797 3.487 6.071 4.004 9.73 10.764 9.73 18.040l-0.086 423.354c0 10.075-7.018 18.126-16.318 20.494l288.594 0.043c1.421 0 2.712 0.56 4.047 0.818 1.421-0.301 2.755-0.861 4.262-0.861 18.513 0 33.582-15.026 33.582-33.496l0.129-680.389c0-18.427-15.026-33.496-33.539-33.496zM504.724 731.686c-9.3-2.368-16.318-10.419-16.318-20.494l0.086-390.375-64.496 28.287c-5.554 2.411-11.797 2.411-17.351 0l-64.496-28.33-0.043 390.375c0 10.075-7.018 18.126-16.318 20.494l178.934 0.043zM888.684 698.19c0 42.236-34.357 76.551-76.637 76.551-1.421 0-2.669-0.517-4.047-0.818-1.421 0.301-2.755 0.861-4.262 0.861l-557.038-0.086c-37.759-0.043-68.457 30.698-68.457 68.457 0 37.802 30.698 68.543 68.457 68.543l620.415 0.129c11.883 0 21.527 9.644 21.527 21.527 0 11.926-9.644 21.527-21.527 21.527l-620.415-0.129c-61.482 0-111.511-50.072-111.511-111.597 0-4.564 0.818-8.912 1.378-13.304-0.732-2.11-1.378-4.305-1.378-6.673l0.172-805.506c0-42.193 34.314-76.551 76.551-76.551l600.308 0.129c42.279 0 76.594 34.357 76.594 76.594l-0.129 680.346z" />
<glyph unicode="&#xe054;" glyph-name="add" d="M388.096 954.88v-382.976h-382.976v-247.808h382.976v-382.976h247.808v382.976h382.976v247.808h-382.976v382.976h-247.808z" />
<glyph unicode="&#xe055;" glyph-name="case" d="M382.706 905.62c-39.49 0-71.632-32.139-71.632-71.55v-92.816h-234.324c-39.49 0-71.63-32.099-71.63-71.55v-607.772c0-39.451 32.14-71.552 71.63-71.552h870.698c39.371 0 71.432 32.101 71.432 71.552v607.772c0 39.451-32.061 71.55-71.432 71.55h-234.516v92.816c0 39.411-32.142 71.55-71.632 71.55zM382.706 861.044h258.594c14.938 0 27.056-12.076 27.056-26.974v-92.816h-312.706v92.816c0 14.898 12.118 26.974 27.056 26.974zM76.75 696.718h870.698c14.819 0 26.856-12.155 26.856-27.014 0.575-42.178-1.234-219.912-1.234-219.912h-377.108v39.34c0 12.316-9.971 22.288-22.246 22.288h-123.242c-12.316 0-22.286-9.972-22.286-22.288-0.476-21.845 3.863-39.393-0.31-39.34h-378.182v219.912c0 14.859 12.116 27.014 27.054 27.014zM472.764 466.884h78.664v-140.284h-78.664zM428.188 304.314c0-12.316 9.97-22.288 22.286-22.288h123.242c12.275 0 22.246 9.972 22.246 22.288v100.942h377.108c0 0 1.234-259.037 1.234-343.324 0-14.859-12.037-27.016-26.856-27.016h-870.698c-14.938 0-27.054 12.157-27.054 27.016v343.324h378.182c0 0 0.31-76.381 0.31-100.942z" />
<glyph unicode="&#xe056;" glyph-name="redirect" d="M337.314 417.497c-9.806 0-19.532-3.079-27.704-9.125l-262.091-194.297c-11.806-8.818-18.8-22.657-18.8-37.372 0-14.721 6.994-28.606 18.8-37.377l262.091-194.211c8.172-6.029 17.898-9.114 27.704-9.114 7.171 0 14.308 1.629 20.885 4.943 15.714 7.897 25.612 23.971 25.612 41.543v55.503h564.966c25.708 0 46.503 20.84 46.503 46.48v184.463c0 25.697-20.795 46.497-46.503 46.497h-564.966v55.571c0 17.572-9.898 33.657-25.612 41.555-6.577 3.313-13.714 4.942-20.885 4.942v0zM337.314 371v-102.068h611.463v-184.463h-611.463v-101.983l-262.091 194.217 262.091 194.297zM686.595 960c-7.131 0-14.304-1.64-20.887-4.955-15.714-7.902-25.612-23.97-25.612-41.542v-55.504h-564.874c-25.709 0-46.503-20.783-46.503-46.485v-184.457c0-25.697 20.794-46.503 46.503-46.503h564.874v-55.565c0-17.578 9.898-33.663 25.612-41.56 6.583-3.315 13.755-4.943 20.887-4.943 9.806 0 19.525 3.085 27.696 9.125l262.103 194.303c11.799 8.818 18.795 22.658 18.795 37.372 0 14.754-6.995 28.6-18.795 37.372l-262.103 194.218c-8.172 6.028-17.891 9.125-27.696 9.125v0zM686.595 913.503l262.097-194.218-262.097-194.297v102.068h-611.372v184.457h611.372v101.989z" />
<glyph unicode="&#xe057;" glyph-name="get-users" d="M516.297 903.357c80.737 0 146.429-77.542 146.429-172.809 0-95.318-65.692-172.809-146.429-172.809-80.788 0-146.532 77.491-146.532 172.809 0 95.266 65.744 172.809 146.532 172.809zM516.297 506.216c109.126 0 197.952 100.625 197.952 224.332 0 123.656-88.826 224.332-197.952 224.332-109.178 0-198.055-100.676-198.055-224.332 0-123.707 88.878-224.332 198.055-224.332zM819.604-7.357h-615.238l-12.932 189.914c-2.937 43.589 33.748 107.117 86.971 126.799 150.293 53.79 317.074 53.687 467.006 0.052 53.636-19.733 90.217-83.158 87.126-126.799l-12.932-189.966zM762.928 357.84c-161.474 57.809-340.105 57.912-502.145-0.052-70.226-26.019-125.51-107.787-120.77-178.631l14.581-214.027c0.927-13.499 12.159-24.010 25.71-24.010h663.361c13.499 0 24.731 10.511 25.71 24.010l14.581 213.924c4.998 70.947-50.287 152.715-121.028 178.785z" />
<glyph unicode="&#xe058;" glyph-name="web-studia" d="M687.359 309.739c-28.381-37.93-33.039-99.541-33.27-132.965h-62.151l53.063 438.173-43.128 5.237-5.93-49.058c-2.464-2.31-4.698-4.775-6.469-7.432-5.237 7.932-13.478 15.672-26.801 15.672-13.246 0-21.487-7.624-26.761-15.518-5.237 7.894-13.478 15.518-26.724 15.518-13.132 0-21.296-7.547-26.533-15.403-5.237 7.855-13.437 15.403-26.607 15.403-13.21 0-21.373-7.586-26.647-15.48 0 0.092 0 0.123-0.308 0.185l-6.814 56.105-43.088-5.237 53.063-438.173h-61.189c-0.585 33.347-5.853 95.113-34.579 133.273-120.759 155.569-124.184 300.241-124.184 301.665 0 165.273 134.427 299.702 299.7 299.702s299.74-134.429 299.74-299.702c0-1.423-3.389-146.096-124.532-301.973zM548.006 176.765h-72.008l-39.97 330.084c9.242 2.116 15.594 8.087 19.87 14.479 5.237-7.894 13.401-15.48 26.607-15.48 13.21 0 21.41 7.586 26.61 15.48 5.274-7.894 13.478-15.48 26.647-15.48 13.283 0 21.524 7.663 26.798 15.634 5.046-7.624 12.978-14.864 25.338-15.403l-39.89-329.314zM512 954.88c-189.224 0-343.176-153.952-343.176-343.176 0-1.577 3.62-161.23 133.158-328.081 25.030-33.27 26.801-103.161 25.375-127.266-0.339-6.007 1.787-11.86 5.856-16.212 4.119-4.39 9.855-6.854 15.825-6.854h327.117c6.047 0 11.823 2.501 15.945 6.931 4.119 4.428 6.198 10.358 5.776 16.366-1.756 24.028-0.77 93.765 23.871 126.766 129.809 167.044 133.429 326.772 133.429 328.351 0 189.224-153.912 343.176-343.176 343.176zM682.433 80.005h-340.558c-12.014 0-21.718-9.704-21.718-21.718s9.704-21.757 21.718-21.757h340.558c12.014 0 21.718 9.742 21.718 21.757s-9.704 21.718-21.718 21.718zM641.27-15.405h-258.229c-12.014 0-21.718-9.704-21.718-21.718s9.704-21.757 21.718-21.757h258.229c12.014 0 21.718 9.742 21.718 21.757s-9.704 21.718-21.718 21.718z" />
<glyph unicode="&#xe059;" glyph-name="investment" d="M555.927 435.032c-7.215-11.31-17.455-21.433-30.725-30.368v86.325c13.686 2.137 24.017 1.632 31.053-1.306 7.034-2.969 10.478-10.241 10.537-21.611 0-10.627-3.681-21.67-10.865-33.040zM500.178 537.595c-11.846-1.247-20.661-0.565-26.42 2.078-5.759 2.612-8.637 9.143-8.637 19.533 0 10.895 3.056 20.423 9.29 28.706 6.146 8.253 14.724 16.653 25.767 25.173v-75.49zM590.006 543.947c-7.599 3.592-16.237 5.017-25.914 4.245-9.618-0.772-22.651-2.761-38.89-5.996v81.961c16.655 2.434 26.954-3.592 31.291-17.989 3.828-12.171 12.14-15.288 25.024-9.47 6.887 3.058 12.646 8.015 17.455 14.902 4.809 6.917 7.184 13.596 7.184 20.156 0 5.907-1.591 11.755-4.781 17.425-3.206 5.7-7.835 10.657-13.684 14.694-7.509 5.462-16.239 8.045-26.33 7.807-10.065-0.325-22.088-3.147-36.159-8.342v21.284c0 10.805-4.244 14.16-12.646 10.152-8.222-3.918-12.378-11.34-12.378-22.412v-20.898c-27.223-15.229-48.002-33.248-62.339-54.087-14.396-20.839-21.58-42.361-21.58-64.981 0-17.366 3.681-29.923 11.043-37.76 7.331-7.837 16.949-12.052 28.704-12.646 11.846-0.565 26.57 0.919 44.172 4.393v-91.638c-8.815-1.632-15.852-1.366-21.195 0.831-5.284 2.344-9.233 5.7-11.933 10.182-2.553 4.482-5.671 11.28-9.202 20.423-1.615 4.275-4.393 6.857-8.49 7.807-4.068 0.891-9.112-0.024-14.961-2.642-7.331-3.265-13.506-8.431-18.464-15.644-4.868-7.154-7.362-13.833-7.362-20.156 0-8.52 1.852-16.446 5.521-23.719 3.681-7.362 9.352-13.447 17.039-18.286s17.277-7.303 28.795-7.54c11.43-0.266 24.876 2.434 40.253 7.985v-53.196c0-5.996 0.95-10.093 2.881-11.993 1.9-2.019 5.194-1.9 9.915 0.356 5.106 2.434 8.488 5.759 10.003 10.034 1.425 4.245 2.232 10.271 2.232 17.989v49.099c18.82 10.42 34.972 22.917 48.655 37.403 13.655 14.516 24.074 29.715 31.020 45.834 7.037 16.060 10.568 31.526 10.568 46.517 0 11.963-2.232 22.026-6.65 30.19-4.303 8.163-10.627 14.101-18.79 17.722zM977.926 300.032c-49.871 28.676-102.324 42.717-159.379 42.717-106.779 0-212.787-50.287-315.289-98.882-98.406-46.636-200.198-94.874-297.772-94.904v0c-57.383 0-109.629 16.386-159.382 50.020v484.197c49.871-28.676 102.355-42.717 159.41-42.717 106.779 0 212.784 50.287 315.317 98.882 98.408 46.636 200.169 94.934 297.715 94.934 57.38 0 109.598-16.416 159.379-50.049v-484.197zM1010.373 811.539c-59.549 42.836-122.275 63.675-191.826 63.675-106.748 0-212.756-50.257-315.289-98.882-98.406-46.636-200.198-94.904-297.743-94.904-60.677 0-115.595 18.316-167.928 55.986-6.236 4.453-14.486 5.017-21.316 1.603-6.825-3.503-11.131-10.538-11.131-18.227v-532.465c0-6.62 3.178-12.765 8.521-16.653 59.549-42.836 122.303-63.675 191.826-63.675v0c106.779 0.024 212.784 50.287 315.289 98.882 98.436 46.636 200.198 94.904 297.743 94.904 60.646 0 115.564-18.316 167.9-55.986 6.232-4.453 14.456-5.046 21.312-1.603 6.83 3.533 11.133 10.568 11.133 18.227v532.495c0 6.59-3.175 12.765-8.518 16.624zM503.265 156.833c-161.132-76.41-313.358-148.545-465.703-38.917-9.172 6.59-21.998 4.512-28.557-4.69-6.65-9.143-4.543-21.937 4.631-28.587 64.151-46.131 128.062-63.853 191.56-63.853 106.746 0 212.278 50.049 315.614 99.060 161.132 76.38 313.327 148.516 465.643 38.917 9.112-6.56 21.936-4.482 28.555 4.661 6.621 9.173 4.543 21.967-4.659 28.617-171.906 123.669-342.3 42.925-507.084-35.207zM364.034 604.87c-85.375-31.971-154.214-40.728-216.434-27.548-11.252 2.197-21.939-4.72-24.283-15.822-2.304-11.073 4.75-21.908 15.821-24.283 21.404-4.512 43.341-6.798 66.139-6.798 52.009 0 108.47 11.904 173.125 36.127 10.599 3.948 15.942 15.763 11.993 26.361-3.978 10.568-15.762 16.089-26.361 11.963zM633.629 702.669c3.087-8.253 10.865-13.329 19.177-13.329 2.375 0 4.809 0.416 7.155 1.278 85.582 32.001 154.304 40.758 216.434 27.667 11.133-2.137 21.939 4.75 24.283 15.793 2.351 11.073-4.75 21.908-15.793 24.283-70.145 14.902-146.111 5.462-239.233-29.329-10.599-3.948-15.971-15.763-12.024-26.361zM364.034 292.552c-85.375-31.971-154.214-40.728-216.434-27.548-11.252 2.109-21.939-4.779-24.283-15.822-2.304-11.073 4.75-21.908 15.821-24.283 21.404-4.512 43.341-6.798 66.139-6.798 52.009 0 108.47 11.904 173.125 36.127 10.599 3.948 15.942 15.763 11.993 26.361-3.978 10.568-15.762 16.089-26.361 11.963zM884.885 446.033c-70.145 14.872-146.111 5.492-239.233-29.329-10.599-3.948-15.971-15.763-12.024-26.361 3.087-8.223 10.896-13.299 19.177-13.299 2.375 0 4.809 0.385 7.155 1.278 85.582 32.001 154.304 40.758 216.434 27.637 11.133-2.197 21.939 4.72 24.283 15.793 2.351 11.073-4.719 21.937-15.793 24.283z" />
<glyph unicode="&#xe05a;" glyph-name="message" d="M512.005 142.055c-12.35 0-24.534 0.726-36.62 1.453-6.802 0.106-13.111-2.113-17.734-6.868-53.957-55.641-130.171-89.752-217.81-98.272 29.984 24.403 55.048 53.297 74.861 86.45 3.004 5.019 5.482 10.171 7.957 15.388l2.808 5.845c2.906 5.812 3.202 12.548 0.819 18.525-2.351 6.010-7.133 10.732-13.209 13.010-159.393 59.604-262.389 186.505-262.389 323.28 0 197.832 206.947 358.812 461.31 358.812 254.366 0 461.31-160.98 461.31-358.812 0-197.865-206.944-358.812-461.31-358.812zM512 905.248c-279.494 0-506.88-181.42-506.88-404.381 0-148.894 104.414-286.528 268.201-356.434-28.861-46.593-70.138-83.346-122.872-109.202-9.214-4.491-14.3-14.695-12.318-24.799 1.955-10.105 10.469-17.633 20.738-18.36 12.516-0.893 24.933-1.321 37.217-1.321 114.286 0 215.662 37.81 286.79 106.693 9.642-0.528 19.351-0.956 29.125-0.956 279.494 0 506.88 181.42 506.88 404.381s-227.386 404.381-506.88 404.381zM308.305 463.757c-11.523 0-20.967 9.345-20.967 20.87s9.444 20.87 20.967 20.87c11.491 0 20.772-9.345 20.772-20.87s-9.28-20.87-20.772-20.87zM308.305 551.066c-36.752 0-66.505-29.785-66.505-66.439s29.754-66.439 66.505-66.439c36.654 0 66.342 29.785 66.342 66.439s-29.688 66.439-66.342 66.439zM512.005 463.757c-11.523 0-20.901 9.345-20.901 20.87s9.378 20.87 20.901 20.87c11.526 0 20.838-9.345 20.838-20.87s-9.312-20.87-20.838-20.87zM512.005 551.066c-36.752 0-66.471-29.785-66.471-66.439s29.719-66.439 66.471-66.439c36.622 0 66.373 29.785 66.373 66.439s-29.751 66.439-66.373 66.439zM715.658 463.757c-11.425 0-20.769 9.345-20.769 20.87s9.344 20.87 20.769 20.87c11.558 0 20.97-9.345 20.97-20.87s-9.412-20.87-20.97-20.87zM715.658 551.066c-36.619 0-66.339-29.785-66.339-66.439s29.719-66.439 66.339-66.439c36.72 0 66.54 29.785 66.54 66.439s-29.82 66.439-66.54 66.439z" />
<glyph unicode="&#xe05b;" glyph-name="security-close" d="M913.040 408.695c-0.339-40.649-23.442-110.459-56.289-145.598-157.678-165.604-344.773-265.467-344.773-265.467s-187.050 99.82-344.559 265.213c-33.021 35.435-56.293 105.204-56.503 145.598v418.313c0 37.046 63.878 87.825 63.878 87.825s222.401-5.637 337.184-5.637c114.742 0 337.526 5.595 337.526 5.595s63.536-51.373 63.536-87.825v-418.017zM862.261 954.846l-700.182 0.034c0 0-92.66-72.142-92.572-128.177v-418.398c0.339-49.253 26.28-130.084 68.069-174.887 165.732-174.039 281.532-231.346 374.402-292.298 124.661 66.25 208.712 118.301 374.613 292.552 41.583 44.421 67.649 125.295 67.903 174.887v418.144c0 55.103-92.233 128.135-92.233 128.135zM650.138 615.66l-138.14-138.138-138.136 138.138-29.501-29.501 138.14-138.138-138.14-138.138 29.501-29.543 138.136 138.18 138.14-138.18 29.501 29.543-138.136 138.138 138.136 138.138-29.501 29.501z" />
<glyph unicode="&#xe05c;" glyph-name="docs" d="M972.8 16.383h-921.6v280.12h253.44v-42.117c0-38.108 31.012-69.12 69.12-69.12h276.48c38.108 0 69.12 31.012 69.12 69.12v42.117h253.44v-280.12zM114.837 672.239h806.4v-329.656h-224.916c-12.718 0-23.040-10.322-23.040-23.040v-65.157c0-12.672-10.322-23.040-23.040-23.040h-276.48c-12.718 0-23.040 10.368-23.040 23.040v65.157c0 12.718-10.322 23.040-23.040 23.040h-212.844v329.656zM995.84 342.583h-28.524v352.696c0 12.764-10.322 23.040-23.040 23.040h-852.48c-12.764 0-23.040-10.276-23.040-23.040v-352.696h-40.596c-12.718 0-23.040-10.322-23.040-23.040v-326.2c0-12.718 10.322-23.040 23.040-23.040h967.68c12.718 0 23.040 10.322 23.040 23.040v326.2c0 12.718-10.322 23.040-23.040 23.040zM145.522 787.458h745.021c12.718 0 23.040 10.322 23.040 23.040s-10.322 23.040-23.040 23.040h-745.021c-12.718 0-23.040-10.322-23.040-23.040s10.322-23.040 23.040-23.040zM189.712 879.618h656.64c12.718 0 23.040 10.322 23.040 23.040s-10.322 23.040-23.040 23.040h-656.64c-12.718 0-23.040-10.322-23.040-23.040s10.322-23.040 23.040-23.040z" />
<glyph unicode="&#xe05d;" glyph-name="totop" d="M704.683 449.141c-12.143 0-21.997-9.855-21.997-21.997v-441.929h-340.3v441.929c0 12.143-9.855 21.997-21.997 21.997h-166.873l359.042 448.66 359.042-448.66h-166.917zM934.556 440.914l-404.841 505.853c-4.136 5.191-10.471 8.227-17.158 8.227s-13.022-3.036-17.202-8.227l-404.841-505.853c-5.279-6.643-6.335-15.618-2.64-23.317 3.652-7.611 11.351-12.451 19.842-12.451h190.674v-441.929c0-12.143 9.811-21.997 21.997-21.997h384.295c12.143 0 21.997 9.855 21.997 21.997v441.929h190.674c8.447 0 16.146 4.839 19.798 12.451 1.452 3.080 2.2 6.335 2.2 9.547 0 4.883-1.628 9.767-4.795 13.77z" />
<glyph unicode="&#xe05e;" glyph-name="transf-domain" d="M49.638 650.823h924.724v-665.141h-924.724v665.141zM974.363 695.341h-924.724v214.977h924.724v-214.977zM996.621 954.836h-969.242c-12.287 0-22.259-9.927-22.259-22.259v-969.153c0-12.331 9.972-22.259 22.259-22.259h969.242c12.287 0 22.259 9.927 22.259 22.259v969.153c0 12.331-9.972 22.259-22.259 22.259zM157.852 753.735c27.111 0 49.148 21.947 49.148 49.103s-22.036 49.148-49.148 49.148c-27.156 0-49.148-21.992-49.148-49.148s21.992-49.103 49.148-49.103zM299.272 753.735c27.111 0 49.148 21.947 49.148 49.103s-22.036 49.148-49.148 49.148c-27.111 0-49.103-21.992-49.103-49.148s21.992-49.103 49.103-49.103zM440.651 753.735c27.2 0 49.237 21.947 49.237 49.103s-22.036 49.148-49.237 49.148c-27.067 0-49.103-21.992-49.103-49.148s22.036-49.103 49.103-49.103zM512.036 516.847h-304.146c-12.287 0-22.259-9.972-22.259-22.259s9.972-22.259 22.259-22.259h304.146c12.287 0 22.259 9.972 22.259 22.259s-9.972 22.259-22.259 22.259zM512.036 375.899h-304.146c-12.287 0-22.259-9.972-22.259-22.259s9.972-22.259 22.259-22.259h304.146c12.287 0 22.259 9.972 22.259 22.259s-9.972 22.259-22.259 22.259zM512.036 234.867h-304.146c-12.287 0-22.259-9.972-22.259-22.259s9.972-22.259 22.259-22.259h304.146c12.287 0 22.259 9.972 22.259 22.259s-9.972 22.259-22.259 22.259zM794.021 234.849h-148.422v237.458h148.422v-237.458zM816.28 516.825h-192.94c-12.331 0-22.259-9.927-22.259-22.259v-281.976c0-12.287 9.927-22.259 22.259-22.259h192.94c12.287 0 22.259 9.972 22.259 22.259v281.976c0 12.331-9.972 22.259-22.259 22.259z" />
<glyph unicode="&#xe05f;" glyph-name="tumb" d="M936.827 449.883c-6.95-6.295-9.092-16.305-5.377-24.872 4.196-9.529 5.945-19.19 5.333-28.894-1.137-20.763-12.808-39.603-31.21-50.356-7.956-4.633-12.152-13.769-10.447-22.818 0.918-5.202 1.224-9.617 0.831-14.381-1.399-25.397-18.228-47.34-42.925-56.126-7.956-2.798-13.551-9.923-14.425-18.272-0.699-6.251-2.186-12.545-4.415-18.84-8.13-21.594-50.4-23.255-63.164-23.255-9.573 0-18.84 0.831-26.927 1.792-26.752 3.497-67.885 6.95-114.919 10.928l-67.841 5.814c-24.304 2.186-46.903 3.322-67.054 3.322-24.26 0-45.941-1.574-65.131-4.371l-84.932 288.324c63.557 54.596 158.631 160.336 193.251 224.942 23.342 75.359 14.381 164.139 13.288 174.717 2.666 6.207 29.506 13.114 45.723 13.114 3.978 0 9.442-3.322 14.6-8.961 18.272-19.802 35.582-68.584 29.331-146.129-0.787-9.442-2.317-19.627-3.934-30.249-1.005-7.125-2.142-14.469-3.147-22.949-1.399-16.96-2.098-32.128-2.142-45.46-0.175-7.737 1.792-19.233 12.414-30.074 32.172-33.090 138.13-39.996 221.358-39.996 11.759 0 19.102 0.175 19.19 0.175 43.493 0 78.9-35.45 78.9-78.988 0-22.162-9.311-42.75-26.227-58.137zM208.41-10.448l-142.195 482.537 220.877 65.175 9.048-30.73c-0.437-3.016-1.005-6.076-0.087-9.092l94.112-319.666c1.005-3.453 3.016-6.295 5.377-8.742l33.702-114.482-220.833-65zM1006.766 508.020c0 67.666-55.033 122.7-123.18 122.7l-18.621-0.175c-125.978 0-183.765 16.785-190.060 25.746 0.044 12.851 0.743 26.883 1.88 41.658 0.874 7.081 1.923 14.075 2.929 20.894 1.748 11.671 3.366 22.818 4.24 33.177 6.382 78.988-8.48 144.337-40.74 179.35-13.9 14.993-30.030 22.993-46.728 22.993-0.568 0-54.028-0.306-77.895-27.101-8.874-9.966-12.72-22.162-11.234-35.232 0.962-8.961 9.048-89.391-9.966-152.336-27.976-51.624-107.838-141.583-166.805-195.436l-7.781 26.358c-1.617 5.551-5.42 10.229-10.491 12.982-5.114 2.754-11.147 3.453-16.654 1.792l-262.753-77.589c-11.54-3.41-18.184-15.518-14.775-27.101l154.522-524.413c2.754-9.573 11.453-15.693 20.938-15.693 2.011 0 4.109 0.262 6.163 0.874l262.797 77.37c5.551 1.617 10.272 5.42 13.026 10.491 2.798 5.071 3.41 11.103 1.748 16.654l-35.669 121.082c25.222 3.060 62.945 4.677 115.749 0l68.103-5.857c46.247-3.847 86.681-7.3 113.127-10.709 9.879-1.224 20.938-2.142 32.391-2.142 54.596 0 91.577 18.272 104.209 51.93 1.923 5.377 3.497 10.797 4.677 16.13 34.532 17.179 57.569 51.056 59.623 89.085 0.306 3.541 0.393 7.081 0.219 10.753 24.085 18.84 38.991 46.859 40.652 77.283 0.787 11.627-0.525 23.211-3.759 34.62 19.496 22.337 30.118 50.181 30.118 79.862z" />
<glyph unicode="&#xe060;" glyph-name="visitors" d="M514.268 740.352c42.71 0 77.399-40.991 77.399-91.371s-34.688-91.327-77.399-91.327-77.443 40.947-77.443 91.327 34.733 91.371 77.443 91.371zM514.268 530.414c57.697 0 104.638 53.201 104.638 118.567 0 65.41-46.942 118.611-104.638 118.611-57.741 0-104.682-53.201-104.682-118.611 0-65.366 46.942-118.567 104.682-118.567zM974.782 261.149h-272.791l6.567 96.176c2.645 37.509-26.578 80.749-63.955 94.545-85.377 30.545-179.789 30.589-265.475-0.044-37.113-13.752-66.336-56.991-63.867-94.457l6.567-96.22h-272.659v572.998h925.613v-572.998zM601.936 60.952h-180.010v156.12h180.010v-156.12zM342.456 359.22c-1.543 23.008 17.851 56.595 46.016 66.997 79.426 28.474 167.624 28.385 246.83 0.044 28.385-10.446 47.691-43.989 46.060-67.041l-6.656-98.071h-325.551l-6.7 98.071zM996.82 878.224h-969.69c-12.165 0-22.038-9.873-22.038-22.038v-617.075c0-12.165 9.873-22.038 22.038-22.038h350.719v-156.12h-28.43c-12.165 0-22.038-9.873-22.038-22.038s9.873-22.038 22.038-22.038h324.978c12.209 0 22.038 9.873 22.038 22.038s-9.829 22.038-22.038 22.038h-28.385v156.12h350.807c12.165 0 22.038 9.873 22.038 22.038v617.075c0 12.165-9.873 22.038-22.038 22.038z" />
<glyph unicode="&#xe061;" glyph-name="shop-basket" d="M885.819 378.718c-0.57-1.974-0.833-3.991-0.833-6.052 0-6.491-6.184-8.201-9.868-8.201h-542.855l-94.291 301.294h729.902l-82.055-287.040zM348.928 147.683c0-42.672-34.69-77.363-77.319-77.363-42.672 0-77.363 34.69-77.363 77.363 0 42.628 34.69 77.319 77.363 77.319 42.628 0 77.319-34.69 77.319-77.319zM763.942 225.002c42.672 0 77.363-34.69 77.363-77.319 0-42.672-34.69-77.363-77.363-77.363-42.628 0-77.319 34.69-77.319 77.363 0 42.628 34.69 77.319 77.319 77.319zM1014.45 700.888c-4.166 5.526-10.657 8.727-17.499 8.727h-780.118l-35.611 106.79c-2.324 6.885-7.85 12.192-14.78 14.166l-133.367 38.067c-11.578 3.465-23.77-3.421-27.103-15.043s3.421-23.814 15.043-27.103l122.228-34.91 149.857-449.309-22.849-73.547c-66.223-0.746-119.86-54.733-119.86-121.044 0-66.837 54.382-121.219 121.219-121.219 59.294 0 108.589 42.892 118.982 99.291h254.367c10.394-56.399 59.689-99.291 118.982-99.291 66.837 0 121.219 54.382 121.219 121.219 0 66.793-54.382 121.175-121.219 121.175-59.294 0-108.589-42.935-118.982-99.247h-254.367c-7.806 42.19-37.497 76.529-76.836 91.265l18.551 59.732h542.811c28.945 0 51.838 21.051 53.636 48.593l89.292 312.433c1.886 6.666 0.526 13.771-3.596 19.253z" />
<glyph unicode="&#xe062;" glyph-name="simple-registry" d="M840.015 161.949l-148.731-148.731v148.731h148.731zM311.043 696.67h558.861v-492.444h-199.759c-11.668 0-21.139-9.47-21.139-21.139v-199.759h-337.963v713.342zM154.069 135.864v739.85h98.294c7.314-26.423 31.285-45.998 60.034-45.998h248.463c28.706 0 52.677 19.574 59.991 45.998h98.252v-136.766h-429.197c-11.668 0-21.139-9.428-21.139-21.139v-581.945h-114.698zM312.396 912.537h248.463c11.119 0 20.208-9.132 20.208-20.335 0-11.119-9.090-20.208-20.208-20.208h-248.463c-11.161 0-20.251 9.090-20.251 20.208 0 11.203 9.090 20.335 20.251 20.335zM912.182 717.809c0 11.711-9.47 21.139-21.139 21.139h-129.664v157.905c0 11.668-9.47 21.139-21.139 21.139h-122.604c-9.808 21.646-31.496 36.823-56.778 36.823h-248.463c-25.282 0-47.012-15.177-56.82-36.823h-122.646c-11.668 0-21.139-9.47-21.139-21.139v-782.127c0-11.711 9.47-21.139 21.139-21.139h135.836v-131.397c0-11.668 9.47-21.139 21.139-21.139h380.24c2.833 0 5.623 0.592 8.159 1.649 2.579 1.099 4.904 2.663 6.849 4.608l220.813 220.813c1.945 1.945 3.509 4.27 4.566 6.849 1.057 2.537 1.649 5.285 1.649 8.117v534.721zM414.2 557.325h216.205c11.711 0 21.139 9.47 21.139 21.139s-9.428 21.139-21.139 21.139h-216.205c-11.668 0-21.139-9.47-21.139-21.139s9.47-21.139 21.139-21.139zM414.2 445.713h358.806c11.711 0 21.139 9.47 21.139 21.139s-9.428 21.139-21.139 21.139h-358.806c-11.668 0-21.139-9.47-21.139-21.139s9.47-21.139 21.139-21.139zM414.2 334.778h358.806c11.711 0 21.139 9.47 21.139 21.139s-9.428 21.139-21.139 21.139h-358.806c-11.668 0-21.139-9.47-21.139-21.139s9.47-21.139 21.139-21.139zM564.436 265.782h-150.253c-11.668 0-21.139-9.47-21.139-21.139s9.47-21.139 21.139-21.139h150.253c11.668 0 21.139 9.47 21.139 21.139s-9.47 21.139-21.139 21.139z" />
<glyph unicode="&#xe063;" glyph-name="slim-arrow-left" d="M1016.894 438.081c2.649 6.336 2.649 13.503 0 19.839-1.298 3.168-3.22 6.076-5.609 8.465l-261.642 261.642c-10.127 10.127-26.59 10.127-36.717 0-10.179-10.179-10.179-26.59 0-36.717l217.343-217.343-899.181-0.312c-14.334 0-25.967-11.633-25.967-25.915 0-14.386 11.633-25.967 25.967-25.967l899.129 0.26-217.291-217.343c-10.179-10.127-10.179-26.538 0-36.717 10.127-10.127 26.59-10.127 36.717 0l261.642 261.694c0 0 0 0 0 0 2.389 2.389 4.311 5.245 5.609 8.413z" />
<glyph unicode="&#xe064;" glyph-name="smile-client" d="M511.978-11.964c-253.634 0-459.964 206.33-459.964 459.964s206.33 459.964 459.964 459.964c253.634 0 460.008-206.33 460.008-459.964s-206.374-459.964-460.008-459.964zM511.978 952.298c-278.062 0-504.298-226.236-504.298-504.298s226.236-504.298 504.298-504.298c278.106 0 504.342 226.236 504.342 504.298s-226.236 504.298-504.342 504.298zM331.353 513.229c8.556 0 16.714 1.64 24.428 4.744 7.625 3.236 14.276 7.537 19.906 13.256 5.63 5.63 10.108 12.147 13.61 19.596 3.369 7.448 5.010 15.65 5.010 24.738 0 8.601-1.64 16.625-5.010 24.339-3.502 7.714-7.98 14.276-13.61 19.995-5.63 5.63-12.28 10.152-19.906 13.522-7.714 3.369-15.872 5.098-24.428 5.098-9 0-17.246-1.729-24.694-5.098s-14.010-7.891-19.64-13.522c-5.63-5.719-10.064-12.28-13.167-19.995-3.192-7.714-4.744-15.739-4.744-24.339 0-17.645 5.941-32.364 17.911-44.334 11.926-11.926 26.733-18 44.334-18zM663.857 522.361c8.556 0 16.714 1.64 24.428 4.788 7.625 3.192 14.276 7.492 19.906 13.211 5.63 5.63 10.108 12.147 13.61 19.596 3.369 7.448 5.010 15.65 5.010 24.738 0 8.601-1.64 16.625-5.010 24.339-3.502 7.714-7.98 14.276-13.61 19.995-5.63 5.63-12.28 10.152-19.906 13.522-7.714 3.369-15.872 5.098-24.428 5.098-9 0-17.246-1.729-24.694-5.098s-14.010-7.891-19.64-13.522c-5.63-5.719-10.064-12.28-13.167-19.995-3.192-7.714-4.744-15.739-4.744-24.339 0-17.645 5.941-32.364 17.911-44.334 11.926-11.926 26.733-18 44.334-18zM834.631 392.614c-44.822-135.396-172.37-233.462-322.618-233.462s-277.796 98.067-322.662 233.462h-38.881c46.107-156.188 190.636-270.57 361.543-270.57s315.391 114.381 361.498 270.57h-38.881z" />
<glyph unicode="&#xe065;" glyph-name="star" d="M685.789 355.006c-7.31-5.305-10.359-14.744-7.602-23.349l94.899-291.923-248.4 180.442c-7.31 5.305-17.209 5.305-24.518 0l-248.442-180.442 94.941 291.923c2.799 8.604-0.251 18.044-7.602 23.349l-248.358 180.442h307.044c9.022 0 17.042 5.848 19.84 14.452l94.857 291.923 94.774-291.923c2.799-8.604 10.818-14.452 19.882-14.452h307.044l-248.358-180.442zM1018.27 562.807c-2.799 8.604-10.818 14.41-19.882 14.41h-356.122l-109.978 338.663c-2.799 8.604-10.818 14.41-19.84 14.41-9.064 0-17.084-5.806-19.882-14.41l-110.019-338.663h-356.122c-9.064 0-17.084-5.806-19.882-14.41s0.292-18.044 7.602-23.349l288.081-209.304-110.061-338.663c-2.799-8.604 0.251-18.044 7.56-23.349 7.31-5.346 17.209-5.346 24.56 0l288.164 209.304 288.081-209.304c3.676-2.673 7.978-3.968 12.28-3.968s8.604 1.295 12.28 3.968c7.31 5.305 10.359 14.744 7.602 23.349l-110.061 338.663 288.039 209.304c7.351 5.305 10.4 14.744 7.602 23.349z" />
<glyph unicode="&#xe066;" glyph-name="tariff-API" d="M976.342 11.967h-184.274v872.067h184.274v-872.067zM997.611 926.571h-226.811c-11.783 0-21.269-9.528-21.269-21.269v-914.604c0-11.74 9.486-21.269 21.269-21.269h226.811c11.74 0 21.269 9.528 21.269 21.269v914.604c0 11.74-9.528 21.269-21.269 21.269zM604.136 11.967h-184.274v347.448h184.274v-347.448zM625.405 401.953h-226.811c-11.783 0-21.269-9.528-21.269-21.269v-389.986c0-11.74 9.486-21.269 21.269-21.269h226.811c11.74 0 21.269 9.528 21.269 21.269v389.986c0 11.74-9.528 21.269-21.269 21.269zM231.931 11.967h-184.274v538.868h184.274v-538.868zM253.2 593.373h-226.811c-11.783 0-21.269-9.528-21.269-21.269v-581.406c0-11.74 9.486-21.269 21.269-21.269h226.811c11.74 0 21.269 9.528 21.269 21.269v581.406c0 11.74-9.528 21.269-21.269 21.269z" />
<glyph unicode="&#xe067;" glyph-name="tarif-partner-sertif" d="M512.087 426.443c-95.709 0-173.574 77.821-173.574 173.486 0 95.753 77.864 173.617 173.574 173.617 95.666 0 173.486-77.864 173.486-173.617 0-95.666-77.821-173.486-173.486-173.486zM512.087 817.070c-119.734 0-217.097-97.407-217.097-217.141 0-119.647 97.363-217.010 217.097-217.010 119.647 0 217.010 97.363 217.010 217.010 0 119.734-97.363 217.141-217.010 217.141zM776.887 106.729c-7.138-0.174-13.754-3.83-17.671-9.836l-60.281-91.966-135.621 244.3c74.426 10.837 141.366 44.656 193.377 94.316l130.137-234.289-109.942-2.524zM200.63 599.942c0 171.702 139.712 311.414 311.457 311.414 171.615 0 311.283-139.712 311.283-311.414 0-171.658-139.668-311.327-311.283-311.327-171.746 0-311.457 139.668-311.457 311.327zM325.065 4.926l-60.281 91.966c-3.874 6.006-10.533 9.662-17.671 9.836l-109.942 2.524 130.137 234.333c52.011-49.661 118.951-83.479 193.42-94.36l-135.664-244.3zM942.409 98.851l-154.51 278.292c49.313 60.977 78.996 138.45 78.996 222.799 0 195.727-159.167 354.938-354.807 354.938-195.727 0-354.981-159.211-354.981-354.938 0-84.349 29.683-161.822 79.040-222.756l-154.554-278.336c-3.7-6.659-3.612-14.798 0.174-21.414 3.787-6.572 10.75-10.75 18.367-10.925l134.533-3.047 73.73-112.509c4.048-6.137 10.881-9.836 18.193-9.836h0.827c7.617 0.305 14.537 4.57 18.237 11.186l160.125 288.346c0.827 1.48 1.045 3.090 1.48 4.657 1.654 0 3.221-0.218 4.831-0.218 1.567 0 3.090 0.218 4.657 0.218 0.435-1.567 0.653-3.177 1.48-4.657l160.125-288.346c3.7-6.616 10.663-10.881 18.237-11.186h0.827c7.312 0 14.145 3.7 18.193 9.836l73.73 112.509 134.533 3.047c7.617 0.174 14.581 4.352 18.367 10.925 3.787 6.616 3.874 14.755 0.174 21.414z" />
<glyph unicode="&#xe068;" glyph-name="time" d="M971.788 562.459h-919.575v207.301h138.593v-54.91c0-12.998 10.549-23.546 23.546-23.546s23.546 10.549 23.546 23.546v54.91h553.337v-54.91c0-12.998 10.549-23.546 23.546-23.546s23.546 10.549 23.546 23.546v54.91h133.46v-207.301zM971.788 47.738h-919.575v467.628h919.575v-467.628zM995.334 816.852h-157.006v54.957c0 13.045-10.549 23.546-23.546 23.546s-23.546-10.502-23.546-23.546v-54.957h-553.337v54.957c0 13.045-10.549 23.546-23.546 23.546s-23.546-10.502-23.546-23.546v-54.957h-162.139c-13.045 0-23.546-10.502-23.546-23.546v-769.115c0-12.998 10.502-23.546 23.546-23.546h966.668c12.998 0 23.546 10.549 23.546 23.546v769.115c0 13.045-10.549 23.546-23.546 23.546zM248.956 419.769h-91.407v-91.359h91.407v91.359zM407.045 419.769h-91.312v-91.359h91.312v91.359zM565.135 419.769h-91.359v-91.359h91.359v91.359zM723.271 419.769h-91.359v-91.359h91.359v91.359zM881.361 419.769h-91.312v-91.359h91.312v91.359zM248.956 273.028h-91.407v-91.359h91.407v91.359zM407.045 273.028h-91.312v-91.359h91.312v91.359zM565.135 273.028h-91.359v-91.359h91.359v91.359zM723.271 273.028h-91.359v-91.359h91.359v91.359zM881.361 273.028h-91.312v-91.359h91.312v91.359z" />
<glyph unicode="&#xe069;" glyph-name="security" d="M913.041 408.687c-0.212-40.649-23.44-110.459-56.289-145.598-157.678-165.604-344.772-265.467-344.772-265.467s-187.052 99.82-344.561 265.213c-33.019 35.435-56.289 105.204-56.501 145.598v418.313c-0.085 37.046 63.877 87.825 63.877 87.825s222.402-5.637 337.185-5.637c114.74 0 337.524 5.595 337.524 5.595s63.537-51.373 63.537-87.825v-418.017zM862.262 954.838l-700.184 0.042c0 0-92.657-72.142-92.572-128.177v-418.398c0.254-49.253 26.28-130.084 68.073-174.887 165.732-174.039 281.532-231.346 374.401-292.298 124.659 66.25 208.712 118.301 374.613 292.552 41.581 44.421 67.649 125.295 67.903 174.887v418.144c0 55.103-92.233 128.135-92.233 128.135z" />
<glyph unicode="&#xe06a;" glyph-name="professional" d="M914.496-14.195h-726.304v141.561h56.347c12.333 0 22.342 10.009 22.342 22.342s-10.009 22.342-22.342 22.342h-56.347v155.949h56.347c12.333 0 22.342 10.009 22.342 22.342 0 12.378-10.009 22.342-22.342 22.342h-56.347v155.86h56.347c12.333 0 22.342 10.009 22.342 22.342 0 12.378-10.009 22.342-22.342 22.342h-56.347v156.083h56.347c12.333 0 22.342 9.965 22.342 22.342 0 12.333-10.009 22.342-22.342 22.342h-56.347v136.199h726.304v-924.391zM936.839 954.88h-770.988c-12.333 0-22.342-9.965-22.342-22.342v-158.541h-56.347c-12.333 0-22.342-10.009-22.342-22.342 0-12.378 10.009-22.342 22.342-22.342h56.347v-156.083h-56.347c-12.333 0-22.342-9.965-22.342-22.342 0-12.333 10.009-22.342 22.342-22.342h56.347v-155.86h-56.347c-12.333 0-22.342-9.965-22.342-22.342 0-12.333 10.009-22.342 22.342-22.342h56.347v-155.949h-56.347c-12.333 0-22.342-10.009-22.342-22.342s10.009-22.342 22.342-22.342h56.347v-163.903c0-12.333 10.009-22.342 22.342-22.342h770.988c12.333 0 22.342 10.009 22.342 22.342v969.075c0 12.378-10.009 22.342-22.342 22.342zM580.233 700.057c44.506 0 80.7-43.299 80.7-96.519 0-53.175-36.195-96.429-80.7-96.429-44.551 0-80.79 43.255-80.79 96.429 0 53.219 36.239 96.519 80.79 96.519zM580.233 462.424c69.127 0 125.385 63.318 125.385 141.114 0 77.885-56.258 141.203-125.385 141.203-69.172 0-125.474-63.318-125.474-141.203 0-77.796 56.303-141.114 125.474-141.114zM442.734 331.503c88.386 31.547 186.692 31.458 274.676 0 28.822-10.59 49.242-45.712 47.589-68.993l-7.194-107.064h-355.153l-7.373 107.154c-1.609 23.102 18.902 58.269 47.455 68.904zM381.785 110.761h396.889c11.797 0 21.538 9.16 22.342 20.868l8.579 127.843c3.173 45.31-31.95 97.457-76.947 113.99-98.127 35.122-206.577 35.256-305.241 0-44.685-16.623-79.807-68.814-76.768-113.946l8.848-127.977c0.804-11.663 10.546-20.778 22.298-20.778z" />
<glyph unicode="&#xe06b;" glyph-name="protocol" d="M839.686 223.649l-202.149-202.149v202.149h202.149zM151.023 907.792h721.955v-637.055h-258.985c-12.996 0-23.544-10.548-23.544-23.544v-258.985h-439.426v919.584zM920.066 931.336c0 13.043-10.548 23.544-23.544 23.544h-769.043c-12.996 0-23.544-10.501-23.544-23.544v-966.672c0-12.996 10.548-23.544 23.544-23.544h486.514c3.155 0 6.216 0.659 9.041 1.836 2.872 1.177 5.462 2.919 7.628 5.086l282.482 282.482c2.166 2.166 3.908 4.756 5.086 7.628 1.177 2.825 1.836 5.886 1.836 9.041v684.143zM286.396 729.201h276.643c12.996 0 23.544 10.548 23.544 23.544s-10.548 23.544-23.544 23.544h-276.643c-12.996 0-23.544-10.548-23.544-23.544s10.548-23.544 23.544-23.544zM286.396 615.346h459.109c12.996 0 23.544 10.548 23.544 23.544s-10.548 23.544-23.544 23.544h-459.109c-12.996 0-23.544-10.548-23.544-23.544s10.548-23.544 23.544-23.544zM286.396 501.582h459.109c12.996 0 23.544 10.548 23.544 23.544s-10.548 23.544-23.544 23.544h-459.109c-12.996 0-23.544-10.548-23.544-23.544s10.548-23.544 23.544-23.544zM478.61 434.811h-192.214c-12.996 0-23.544-10.548-23.544-23.544s10.548-23.544 23.544-23.544h192.214c12.996 0 23.544 10.548 23.544 23.544s-10.548 23.544-23.544 23.544z" />
<glyph unicode="&#xe06c;" glyph-name="redactor" d="M839.158 611.857l-185.8 185.8 79.753 79.798 185.8-185.846-79.753-79.753zM250.212 22.82l-110.248-6.482c-1.050 47.432-34.832 81.898-81.944 83.679l6.437 108.741 556.625 556.625 76.831-76.785-526.769-526.769c-8.902-8.902-8.902-23.373 0-32.275 4.474-4.474 10.317-6.711 16.115-6.711 5.843 0 11.687 2.237 16.161 6.711l526.769 526.769 76.694-76.74-556.671-556.762zM974.057 691.61c0 6.072-2.42 11.869-6.711 16.161l-218.076 218.076c-4.246 4.291-10.089 6.711-16.161 6.711-6.026 0-11.824-2.42-16.115-6.711l-690.977-690.931c-3.926-3.972-6.3-9.267-6.619-14.837l-13.695-231.862c-0.411-6.482 2.009-12.874 6.619-17.484 4.291-4.246 10.089-6.665 16.161-6.665 0.457 0 0.867 0 1.324 0.046l231.725 13.65c5.615 0.32 10.865 2.648 14.837 6.619l690.977 691.114c4.291 4.291 6.711 10.089 6.711 16.115zM996.928 16.931h-509.833c-12.6 0-22.826-10.226-22.826-22.826s10.226-22.826 22.826-22.826h509.833c12.6 0 22.826 10.226 22.826 22.826s-10.226 22.826-22.826 22.826z" />
<glyph unicode="&#xe06d;" glyph-name="registr" d="M1006.974 448.173c0 4.502-1.637 8.458-3.91 12.004-0.273 0.409-0.136 0.955-0.455 1.364l-218.259 300.016c-7.412 10.185-21.69 12.368-31.784 5.002-10.14-7.412-12.414-21.599-5.002-31.784l192.023-263.867h-519.548c-12.595 0-22.735-10.185-22.735-22.735s10.14-22.735 22.735-22.735h519.548l-192.023-263.776c-7.412-10.185-5.138-24.372 5.002-31.784 4.047-2.91 8.73-4.365 13.368-4.365 7.048 0 13.96 3.274 18.416 9.367l218.259 299.925c0.318 0.409 0.182 0.955 0.455 1.364 2.274 3.547 3.91 7.503 3.91 12.004zM647.937-13.446h-585.799v922.828h585.799c12.55 0 22.735 10.14 22.735 22.735 0 12.55-10.185 22.735-22.735 22.735h-608.535c-12.55 0-22.735-10.185-22.735-22.735v-968.299c0-12.55 10.185-22.735 22.735-22.735h608.535c12.55 0 22.735 10.185 22.735 22.735s-10.185 22.735-22.735 22.735z" />
<glyph unicode="&#xe06e;" glyph-name="release-certificate" d="M655.755 249.624l-178.763-178.763v178.763h178.763zM706.015 487.35c-11.493 0-20.82-9.328-20.82-20.82v-175.265h-229.023c-11.493 0-20.82-9.328-20.82-20.82v-229.023h-388.59v813.158h638.434v-148.615c0-11.493 9.328-20.82 20.82-20.82s20.82 9.328 20.82 20.82v169.436c0 11.534-9.328 20.82-20.82 20.82h-680.075c-11.493 0-20.82-9.286-20.82-20.82v-854.799c0-11.493 9.328-20.82 20.82-20.82h430.231c2.79 0 5.497 0.583 7.995 1.624 2.54 1.041 4.83 2.582 6.746 4.497l249.802 249.802c1.915 1.915 3.456 4.206 4.497 6.746 1.041 2.498 1.624 5.205 1.624 7.995v196.086c0 11.493-9.328 20.82-20.82 20.82zM1012.79 603.282l-174.474 174.474c-8.12 8.162-21.278 8.162-29.44 0-8.12-8.12-8.12-21.278 0-29.44l138.955-138.955h-491.651c-11.534 0-20.82-9.328-20.82-20.82 0-11.534 9.328-20.82 20.82-20.82h491.651l-138.955-138.955c-8.12-8.162-8.12-21.32 0-29.44 4.081-4.081 9.411-6.121 14.741-6.121s10.66 2.040 14.699 6.121l174.474 174.516c8.12 8.12 8.12 21.32 0 29.44z" />
<glyph unicode="&#xe06f;" glyph-name="reporting" d="M621.415 337.078c-10.602-4.157-16.627-15.319-14.338-26.481 19.989-96.537-9.061-195.036-77.716-263.598-12.984-12.984-27.182-24.66-42.501-34.935 21.577 96.631-0.327 200.221-61.883 281.533-4.063 5.418-10.275 8.734-16.954 9.247-13.217 0.887-25.5 2.195-37.083 4.017-1.681 11.302-3.082 23.539-4.017 37.083-0.514 6.725-3.83 12.89-9.201 16.954-79.677 60.388-186.209 83.18-281.533 62.070 10.182 15.226 21.858 29.377 34.888 42.407 68.141 68.095 168.088 97.285 263.598 77.669 11.022-2.242 22.278 3.783 26.435 14.385 28.163 71.878 70.056 135.909 124.56 190.366 120.030 120.030 288.958 179.25 440.934 154.731 24.566-152.489-33.86-320.063-154.778-440.98-54.41-54.457-118.488-96.304-190.413-124.467zM404.334 208.175c-59.408-59.314-138.992-89.672-214.465-82.386-7.146 76.034 22.978 155.151 82.339 214.512 3.83 3.876 5.698 8.734 6.258 13.778 14.805-7.052 29.283-14.852 42.734-24.333 1.588-17.561 3.783-33.207 6.679-47.685 1.868-9.201 9.061-16.44 18.308-18.261 14.992-2.989 30.638-5.184 47.638-6.725 9.528-13.544 17.374-27.882 24.426-42.547-5.044-0.56-10.041-2.429-13.918-6.352zM1009.62 927.232c-1.821 9.247-9.107 16.487-18.355 18.308-30.778 6.165-62.817 9.341-95.043 9.341-145.95 0-293.068-63.471-403.57-174.066-54.55-54.504-97.518-117.835-127.736-188.591-105.832 15.319-212.224-19.242-286.857-93.829-30.358-30.311-54.27-65.993-71.037-106.018-3.69-8.78-1.681-18.868 4.997-25.547 6.725-6.679 16.813-8.64 25.547-5.044 62.303 26.154 133.574 28.022 198.773 8.407-72.345-74.213-106.252-174.44-90.373-269.156 1.681-9.808 9.388-17.514 19.242-19.149 15.366-2.569 30.871-3.83 46.377-3.83 80.284 0 160.849 33.767 223.012 94.623 19.943-65.012 17.888-135.535-8.874-199.146-3.69-8.78-1.728-18.868 4.997-25.594 4.484-4.484 10.462-6.819 16.533-6.819 3.036 0 6.072 0.56 9.014 1.821 40.259 16.907 76.034 40.866 106.159 71.084 75.24 75.054 109.568 181.072 93.782 286.857 70.803 30.218 134.181 73.139 188.638 127.642 135.909 135.909 199.053 327.022 164.772 498.707zM792.137 629.067c-26.528-26.435-72.625-26.435-99.059-0.093-27.322 27.369-27.369 71.831-0.093 99.153 13.264 13.217 30.871 20.55 49.553 20.55 18.728 0 36.336-7.333 49.6-20.55 13.217-13.217 20.456-30.825 20.456-49.506 0-18.775-7.239-36.383-20.456-49.553zM659.965 761.147c-45.537-45.537-45.49-119.609 0.093-165.193 22.044-22.044 51.328-34.094 82.48-34.094s60.529 12.096 82.62 34.187c22.044 21.998 34.141 51.328 34.141 82.573 0 31.198-12.096 60.529-34.141 82.526-44.229 44.182-120.964 44.182-165.193 0z" />
<glyph unicode="&#xe070;" glyph-name="mobile" d="M892.16-14.803h-760.32v925.607h760.32v-925.607zM914.198 954.88h-804.397c-12.165 0-22.038-9.873-22.038-22.038v-969.683c0-12.165 9.873-22.038 22.038-22.038h804.397c12.211 0 22.038 9.873 22.038 22.038v969.683c0 12.165-9.827 22.038-22.038 22.038zM219.993 809.78h584.014v-661.148h-584.014v661.148zM197.955 104.556h628.090c12.211 0 22.038 9.873 22.038 22.038v705.224c0 12.165-9.827 22.038-22.038 22.038h-628.090c-12.165 0-22.038-9.873-22.038-22.038v-705.224c0-12.165 9.873-22.038 22.038-22.038zM567.112 67.845h-110.191c-12.165 0-22.038-9.873-22.038-22.038s9.873-22.038 22.038-22.038h110.191c12.165 0 22.038 9.873 22.038 22.038s-9.873 22.038-22.038 22.038z" />
<glyph unicode="&#xe071;" glyph-name="money" d="M558.837 272.746c-7.713-8.579-18.632-14.256-32.845-16.986v91.947c14.559-4.593 25.652-10.226 33.191-16.899 7.453-6.63 11.266-16.076 11.266-28.251 0-11.353-3.9-21.362-11.613-29.811zM499.431 410.017c-12.696 4.68-22.099 9.836-28.165 15.469-6.196 5.676-9.229 14.082-9.229 25.088 0 11.699 3.206 20.322 9.879 26.128 6.543 5.72 15.729 10.313 27.515 13.822v-80.508zM595.148 372.319c-8.059 7.366-17.376 13.042-27.602 16.986-10.313 3.9-24.092 8.276-41.554 12.999v87.354c17.679-5.72 28.858-17.332 33.451-34.838 4.030-14.862 12.912-22.272 26.648-22.272 7.28 0 13.519 2.556 18.719 7.669 5.070 5.113 7.583 11.223 7.583 18.155 0 6.37-1.777 13.259-5.156 20.755-3.38 7.583-8.276 14.992-14.646 22.099-7.843 9.359-17.246 16.336-27.991 21.015-10.746 4.636-23.528 7.669-38.607 9.229v22.705c0 11.483-4.376 17.202-13.346 17.202-8.883 0-13.216-5.893-13.216-17.679v-22.229c-29.031-2.513-51.217-11.483-66.512-26.822-15.339-15.469-22.922-35.228-22.922-59.276 0-18.502 3.856-33.581 11.743-45.367 7.799-11.786 18.025-20.799 30.635-27.168s28.251-12.219 47.057-17.376v-97.667c-9.403 2.686-17.029 6.543-22.619 11.569-5.633 5.026-9.879 10.573-12.782 16.726-2.686 6.066-5.98 14.819-9.793 26.302-1.69 5.416-4.723 9.489-8.969 12.436-4.42 2.946-9.749 4.463-16.076 4.463-7.886 0-14.299-2.73-19.542-8.189-5.33-5.33-7.886-11.353-7.886-18.155 0-9.056 1.863-18.372 5.85-27.818s9.966-18.545 18.199-27.342c8.189-8.709 18.372-15.989 30.635-21.839 12.263-5.98 26.648-9.793 42.984-11.613v-56.676c0-6.456 0.997-11.266 2.946-14.299 2.037-3.12 5.676-4.636 10.746-4.636 5.33 0 8.883 1.95 10.529 5.676 1.69 3.77 2.34 9.836 2.34 18.025v52.387c19.975 1.603 37.394 6.89 51.953 15.686 14.559 8.839 25.478 20.192 33.018 34.144s11.266 28.858 11.266 44.89c0 12.696-2.297 24.438-7.020 35.098-4.68 10.703-11.353 19.975-20.062 27.688zM865.495 36.837c-28.858-14.429-181.251-52.387-353.447-52.387-203.003 0-326.322 38.824-353.49 52.387-37.394 18.719-31.415 36.918-16.726 70.065 4.246 9.706 8.319 18.805 9.793 27.818 1.647 9.619 3.293 38.911 6.326 94.287 5.46 100.353 13.736 252.053 25.998 304.050 11.699 49.7 148.537 140.304 235.415 187.794h185.324c86.921-47.49 223.802-138.051 235.458-187.794 12.089-51.693 20.409-202.657 25.868-302.49 3.076-56.33 4.766-86.184 6.413-95.804 1.473-9.013 5.503-18.199 9.836-27.905 14.646-33.148 20.495-51.347-16.769-70.022zM323.128 892.788c4.766 2.86 8.753 5.936 12.349 8.666 8.406 6.5 13.086 10.096 24.655 10.096s16.249-3.596 24.655-10.096c10.486-8.059 24.828-19.109 51.173-19.109 26.302 0 40.644 11.049 51.13 19.109 8.493 6.5 13.129 10.096 24.785 10.096 11.483 0 16.162-3.596 24.568-10.053 10.486-8.059 24.828-19.152 51.26-19.152 26.345 0 40.687 11.049 51.217 19.109 8.493 6.5 13.129 10.096 24.785 10.096 11.613 0 16.292-3.596 24.785-10.096 3.553-2.73 7.54-5.85 12.306-8.709l-106.42-120.112h-165.002l-106.246 120.155zM921.868 124.408c-2.86 6.456-6.11 13.779-6.716 17.506-1.3 7.756-3.553 48.183-5.85 90.994-5.59 101.393-13.996 254.61-26.995 310.073-17.939 76.608-191.824 179.475-247.027 210.456l120.632 136.231c5.676 6.326 7.063 15.426 3.553 23.225s-11.266 12.782-19.759 12.782c-11.656 0-16.292 3.596-24.828 10.096-10.486 8.103-24.828 19.109-51.173 19.109-26.388 0-40.731-11.006-51.217-19.109-8.493-6.5-13.172-10.096-24.785-10.096-11.656 0-16.292 3.596-24.785 10.139-10.486 8.059-24.785 19.065-51.043 19.065-26.432 0-40.774-11.006-51.26-19.109-8.406-6.5-13.129-10.096-24.655-10.096-11.569 0-16.249 3.596-24.655 10.096-10.529 8.103-24.828 19.109-51.173 19.109s-40.687-11.006-51.173-19.109c-8.406-6.5-13.086-10.096-24.655-10.096-8.493 0-16.249-4.983-19.759-12.782-3.51-7.756-2.123-16.856 3.51-23.225l120.545-136.361c-55.463-31.155-228.785-133.805-246.81-210.326-13.172-55.68-21.535-209.72-27.125-311.633-2.297-42.031-4.506-81.808-5.763-89.521-0.607-3.553-3.856-10.876-6.673-17.332-12.696-28.728-39.171-88.394 36.961-126.395 31.718-15.859 160.409-56.98 372.859-56.98 169.985 0 333.038 37.048 372.815 56.98 75.958 38.001 49.657 97.624 37.004 126.308z" />
<glyph unicode="&#xe072;" glyph-name="opt-registration" d="M229.209 221.012c12.875-0.666 24.552-4.307 32.809-12.564 8.746-8.746 12.653-21.133 12.92-34.141l-48.659-2.841 2.93 49.547zM235.824 333.381l465.902 465.99 152.326-152.326-465.946-466.079-68.549-4.040c-0.932 24.33-9.634 46.395-26.15 62.91-16.116 16.116-37.604 24.862-61.534 26.105l3.951 67.439zM796.114 893.759l152.326-152.282-62.999-63.044-152.326 152.326 62.999 62.999zM192.049 344.436l-11.543-195.302c-0.355-6.304 1.953-12.52 6.438-17.004 4.173-4.173 9.856-6.482 15.717-6.482 0.444 0 0.844 0 1.288 0.044l195.213 11.454c5.416 0.311 10.522 2.619 14.385 6.438l582 582.222c4.173 4.129 6.526 9.812 6.526 15.672 0 5.905-2.353 11.543-6.526 15.717l-183.715 183.626c-4.173 4.173-9.812 6.526-15.717 6.526s-11.543-2.353-15.672-6.526l-581.955-582c-3.818-3.818-6.127-8.968-6.438-14.385zM996.682 466.603c-12.254 0-22.198-9.945-22.198-22.198v-458.887h-924.966v924.966h458.798c12.254 0 22.198 9.945 22.198 22.198s-9.945 22.198-22.198 22.198h-480.997c-12.254 0-22.198-9.945-22.198-22.198v-969.363c0-12.254 9.945-22.198 22.198-22.198h969.363c12.254 0 22.198 9.945 22.198 22.198v481.085c0 12.254-9.945 22.198-22.198 22.198z" />
<glyph unicode="&#xe073;" glyph-name="partner-program" d="M50.683 760.574h922.644v-503.604h-922.644v503.604zM973.327 806.137h-922.644v94.907h922.644v-94.907zM996.108 946.606h-968.206c-12.575 0-22.781-10.206-22.781-22.781v-689.636c0-12.575 10.206-22.781 22.781-22.781h461.322v-10.981l-210.864-212.185c-8.885-8.93-8.839-23.328 0.073-32.213 8.976-8.839 23.374-8.885 32.213 0.091l178.56 179.654v-95.226c0-12.575 10.206-22.781 22.781-22.781s22.781 10.206 22.781 22.781v95.226l178.378-179.654c4.465-4.465 10.343-6.698 16.175-6.698s11.618 2.233 16.038 6.607c8.976 8.885 9.021 23.283 0.146 32.213l-210.727 212.185v10.981h461.322c12.575 0 22.781 10.206 22.781 22.781v689.636c0 12.575-10.206 22.781-22.781 22.781zM263.41 532.747c-12.575 0-22.781-10.206-22.781-22.781v-136.688c0-12.575 10.206-22.781 22.781-22.781s22.781 10.206 22.781 22.781v136.688c0 12.575-10.206 22.781-22.781 22.781zM429.108 680.826c-12.575 0-22.781-10.206-22.781-22.781v-284.767c0-12.575 10.206-22.781 22.781-22.781s22.781 10.206 22.781 22.781v284.767c0 12.575-10.206 22.781-22.781 22.781zM594.942 487.184c-12.575 0-22.781-10.206-22.781-22.781v-91.125c0-12.575 10.206-22.781 22.781-22.781s22.781 10.206 22.781 22.781v91.125c0 12.575-10.206 22.781-22.781 22.781zM760.731 623.872c-12.575 0-22.781-10.206-22.781-22.781v-227.813c0-12.575 10.206-22.781 22.781-22.781s22.781 10.206 22.781 22.781v227.813c0 12.575-10.206 22.781-22.781 22.781z" />
<glyph unicode="&#xe074;" glyph-name="pay-money" d="M698.174 55.819c-155.725 0-282.454 126.73-282.454 282.454s126.73 282.416 282.454 282.416c155.725 0 282.454-126.691 282.454-282.416s-126.73-282.454-282.454-282.454zM131.659 635.263v57.799c57.799-41.389 172.403-63.307 282.416-63.307 110.052 0 224.693 21.919 282.454 63.307v-34.236c-94.712-0.459-179.632-42.383-238.082-108.292-14.536-0.765-29.263-1.339-44.373-1.339-174.966 0-282.416 50.149-282.416 86.067zM325.789 506.583c-175.004 0-282.416 50.149-282.416 86.067 0 14.842 18.782 31.635 50.034 46.056v-3.443c0-79.794 161.348-123.21 315.16-124.205-26.815-2.754-54.395-4.476-82.778-4.476zM131.659 288.010v58.105c48.504-35.307 140.080-58.908 250.858-62.848 4.973-28.383 13.618-55.466 25.552-80.789-166.933 3.787-276.41 52.673-276.41 85.532zM378.309 321.825c-89.434 3.787-158.861 20.656-201.054 41.389 46.591-8.989 98.040-13.656 148.533-13.656 17.673 0 35.039 1.071 52.367 2.104-0.191-4.476-0.689-8.875-0.689-13.388 0-5.547 0.574-10.978 0.842-16.448zM43.373 473.877v57.761c57.761-41.389 172.403-63.307 282.416-63.307 27.886 0 55.045 1.683 81.554 4.208-11.973-25.858-20.541-53.515-25.285-82.51-18.514-1.224-37.258-2.219-56.269-2.219-175.004 0-282.416 50.11-282.416 86.067zM414.075 840.18c175.004 0 282.454-50.187 282.454-86.106 0-35.957-107.45-86.067-282.454-86.067-174.966 0-282.416 50.11-282.416 86.067 0 35.919 107.45 86.106 282.416 86.106zM734.781 656.684v95.975c0 0.191-0.115 0.344-0.115 0.536 0 0.306 0.115 0.574 0.115 0.88 0 80.75-165.211 124.358-320.707 124.358-155.419 0-320.668-43.608-320.668-124.358 0-0.306 0.115-0.574 0.115-0.88 0-0.191-0.115-0.344-0.115-0.536v-72.603c-71.991-28.345-88.286-62.848-88.286-87.406 0-0.306 0.115-0.574 0.115-0.88 0-0.191-0.115-0.344-0.115-0.536v-117.358c0-37.487 35.804-66.865 89.51-87.674-0.65-1.874-1.224-3.825-1.224-5.929v-102.898c0-5.623 2.563-10.558 6.426-14.077 31.788-62.734 182.348-99.456 328.778-99.456 0.268 0 0.459 0.153 0.727 0.153 57.225-88.018 156.26-146.429 268.837-146.429 176.84 0 320.707 143.867 320.707 320.707 0 164.408-124.473 300.165-284.099 318.411zM754.994 260.751c-2.333-6.044-5.7-11.399-10.213-15.951-4.476-4.552-9.984-8.339-16.601-11.246-6.579-2.907-14.077-4.82-22.569-5.585l6.656 97.467c6.426-2.104 12.394-4.399 17.979-6.847 5.623-2.525 10.481-5.432 14.689-8.836 4.169-3.404 7.459-7.421 9.831-12.126 2.486-4.705 3.672-10.328 3.672-16.831 0-7.306-1.148-13.962-3.443-20.044zM693.025 365.907c-6.082 2.104-11.782 4.476-17.022 7.038-5.164 2.639-9.716 5.7-13.656 9.257-3.94 3.519-7 7.574-9.257 12.202-2.18 4.59-3.251 10.060-3.251 16.334 0 5.394 0.918 10.443 2.945 15.339 1.913 4.896 4.858 9.334 8.836 13.235 4.016 3.94 9.142 7.153 15.301 9.793 6.197 2.563 13.58 4.284 22.033 5.088l-5.929-88.286zM767.005 336.299c-7.306 5.355-15.492 9.754-24.634 13.159-9.142 3.366-18.399 6.541-27.809 9.41l6.503 94.712c6.35-0.88 12.049-2.448 16.984-4.59 4.973-2.18 9.334-4.284 13.082-6.426 3.863-2.18 7.077-4.055 9.716-5.661 2.754-1.645 4.935-2.486 6.771-2.486 3.366 0 6.388 1.951 8.989 5.853l8.454 12.929c-7.842 7.574-16.678 14-26.624 19.356-9.946 5.394-21.689 8.836-35.422 10.596l2.716 38.711h-12.891c-2.907 0-5.164-0.956-6.885-2.907-1.683-1.989-2.639-4.169-2.945-6.656l-1.951-28.536c-13.541 0-25.629-2.295-35.957-6.809-10.481-4.476-19.279-10.29-26.318-17.367-7.153-7.038-12.508-15.148-16.334-24.214-3.672-9.104-5.508-18.399-5.508-27.962 0-12.7 2.142-23.257 6.35-31.673 4.284-8.492 9.831-15.416 16.831-21.039 7-5.508 14.88-10.060 23.716-13.465 8.798-3.519 17.787-6.579 26.891-9.334l-7.268-103.931c-8.875 1.071-16.487 3.098-22.76 6.044-6.35 3.060-11.782 6.159-16.372 9.334-4.552 3.213-8.415 6.006-11.552 8.53-3.137 2.448-5.929 3.672-8.415 3.672-1.798 0-3.634-0.421-5.279-1.377-1.645-0.88-3.022-2.066-3.94-3.519l-10.366-16.028c9.448-9.754 20.58-17.826 33.585-24.137 12.967-6.35 27.389-10.252 43.11-11.705l-2.869-44.181h12.891c2.754 0 4.935 0.956 6.771 2.831 1.798 1.874 2.792 4.093 3.060 6.579l2.257 35.001c14.039 0 26.432 2.448 37.372 7.383 10.825 4.896 20.006 11.284 27.58 19.126 7.459 7.842 13.159 16.946 17.099 27.312 3.863 10.366 5.853 21.421 5.853 33.165 0 12.088-2.219 22.11-6.809 30.143-4.399 8.071-10.328 14.804-17.673 20.159z" />
<glyph unicode="&#xe075;" glyph-name="personal-cab" d="M972.36 55.863h-919.594v721.963h215.901c10.783-32.915 41.391-56.789 77.838-56.789h353.165c36.588 0 67.195 23.874 78.026 56.789h194.664v-721.963zM346.505 838.759h353.165c19.495 0 35.411-15.869 35.411-35.316s-15.916-35.316-35.411-35.316h-353.165c-19.401 0-35.222 15.869-35.222 35.316s15.822 35.316 35.222 35.316zM995.905 824.915h-216.937c-9.465 35.034-41.155 60.933-79.297 60.933h-353.165c-37.953 0-69.644-25.899-79.156-60.933h-238.127c-13.044 0-23.544-10.548-23.544-23.544v-769.052c0-12.996 10.501-23.544 23.544-23.544h966.683c12.996 0 23.544 10.548 23.544 23.544v769.052c0 12.996-10.548 23.544-23.544 23.544zM321.784 590.413c29.101 0 52.786-29.007 52.786-64.653 0-35.599-23.686-64.559-52.786-64.559-29.289 0-53.069 28.96-53.069 64.559 0 35.646 23.78 64.653 53.069 64.653zM321.784 414.114c55.047 0 99.875 50.055 99.875 111.647s-44.828 111.741-99.875 111.741c-55.235 0-100.158-50.149-100.158-111.741s44.923-111.647 100.158-111.647zM446.851 200.52h-250.512l-4.991 73.034c-0.989 14.456 12.573 37.388 30.561 44.075 64.135 22.932 135.38 22.838 199.091 0 17.8-6.498 31.785-29.619 30.702-44.169-1.507-24.062-3.108-48.454-4.85-72.94zM437.057 361.939c-74.306 26.558-156.381 26.746-231.252-0.047-36.4-13.514-63.946-54.576-61.451-91.54l6.545-95.072c0.848-12.337 11.113-21.849 23.45-21.849h294.398c12.337 0 22.603 9.512 23.497 21.849 2.307 31.926 4.521 63.899 6.404 94.931 2.825 37.106-24.769 78.214-61.592 91.729zM613.357 529.010c-12.996 0-23.544-10.548-23.544-23.544s10.548-23.544 23.544-23.544h196.265c12.996 0 23.544 10.548 23.544 23.544s-10.548 23.544-23.544 23.544h-196.265zM809.622 379.833h-196.265c-12.996 0-23.544-10.548-23.544-23.544s10.548-23.544 23.544-23.544h196.265c12.996 0 23.544 10.548 23.544 23.544s-10.548 23.544-23.544 23.544z" />
<glyph unicode="&#xe076;" glyph-name="pig" d="M293.739 462.016c-20.575 0-37.206-16.672-37.206-37.247s16.631-37.247 37.206-37.247c20.575 0 37.247 16.672 37.247 37.247s-16.672 37.247-37.247 37.247zM611.017 819.364c36.393 0 65.995-29.602 65.995-65.995s-29.602-65.995-65.995-65.995c-36.434 0-66.077 29.602-66.077 65.995s29.643 65.995 66.077 65.995zM611.017 646.71c58.798 0 106.658 47.86 106.658 106.658s-47.86 106.658-106.658 106.658c-58.839 0-106.739-47.86-106.739-106.658s47.901-106.658 106.739-106.658zM896.689 362.466c-8.824-2.48-14.761-13.297-14.761-22.446 0-73.193-34.604-143.336-97.468-197.498-4.473-3.863-7.075-9.515-7.075-15.411v-113.449c0-17.607-14.273-31.88-31.839-31.88h-60.994c-17.526 0-31.839 14.273-31.839 31.88v28.586c0 6.303-2.928 12.239-7.889 16.102-5.002 3.822-11.508 5.286-17.566 3.538-70.021-18.217-145.613-19.681-216.813-3.944-6.059 1.342-12.361-0.122-17.119-4.026-4.798-3.863-7.604-9.678-7.604-15.858v-24.398c0-17.607-14.313-31.88-31.88-31.88h-60.994c-17.526 0-31.839 14.273-31.839 31.88v99.379c0 6.343-2.968 12.361-8.011 16.184-48.633 37.003-83.562 83.562-101.006 134.675-2.806 8.255-10.532 13.785-19.233 13.785h-22.608c-17.566 0-31.88 14.354-31.88 31.92v60.913c0 17.607 14.313 31.88 31.88 31.88h22.608c8.702 0 16.428 5.53 19.233 13.785 17.404 51.032 52.333 97.631 101.006 134.756 5.042 3.822 8.011 9.8 8.011 16.143v67.622c26.553 9.068 54.935-0.325 72.095-21.836 5.449-6.791 14.639-9.474 22.812-6.425 30.7 11.060 63.678 18.298 97.794 22.486 8.295-10.491 17.526-19.965 27.732-28.626-9.962-0.203-19.884-0.569-29.846-1.423-11.182-0.854-19.518-10.654-18.623-21.876 0.935-11.182 10.654-19.681 21.917-18.623 86.164 6.791 172.288-10.369 242.268-48.754 3.131-1.708 6.506-2.48 9.759-2.48 7.197 0 14.151 3.782 17.892 10.532 5.367 9.881 1.748 22.202-8.051 27.61-12.646 6.953-25.902 13.012-39.402 18.664 13.988 4.92 27.325 11.060 39.687 18.786 83.643-44.444 141.465-113.449 158.991-191.196 1.383-6.221 5.53-11.386 11.264-14.029 5.733-2.602 12.402-2.521 17.973 0.447 15.899 8.295 29.114 20.128 38.873 34.197-5.245-23.544-23.3-43.062-47.453-49.69zM611.034 914.217c88.645 0 160.821-72.136 160.821-160.861 0-88.685-72.176-160.861-160.821-160.861-88.767 0-160.902 72.176-160.902 160.861 0 88.726 72.136 160.861 160.902 160.861zM955.853 501.085c-6.303 6.425-16.021 7.97-23.95 3.822-7.929-4.188-12.239-13.012-10.532-21.795 0.61-3.375 1.139-6.791 1.139-10.288 0-15.736-5.611-30.538-15.411-42.248-25.008 71.932-79.78 135.122-154.925 179.322 37.166 36.556 60.343 87.343 60.343 143.458 0 111.131-90.393 201.524-201.483 201.524-111.172 0-201.565-90.393-201.565-201.524 0-31.27 7.767-60.506 20.535-86.937-25.78-4.107-51.032-9.434-75.023-17.322-32.205 30.944-81.976 39.158-123.858 16.834-6.628-3.538-10.776-10.45-10.776-17.973v-70.997c-46.721-37.532-81.61-83.48-101.738-133.902h-8.458c-40.012 0-72.542-32.53-72.542-72.542v-60.913c0-40.012 32.53-72.583 72.542-72.583h8.458c20.169-50.462 55.017-96.37 101.738-133.902v-89.458c0-40.012 32.53-72.542 72.501-72.542h60.994c39.931 0 72.42 32.408 72.542 72.298 61.441-10.369 125.078-9.149 185.666 3.212v-2.968c0-40.012 32.53-72.542 72.501-72.542h60.994c40.012 0 72.501 32.53 72.501 72.542v104.259c63.678 57.741 100.233 130.974 104.056 210.51 38.508 16.875 64.288 55.22 64.288 97.956 0 28.098-10.816 54.61-30.538 74.697z" />
<glyph unicode="&#xe077;" glyph-name="infinity" d="M796.875 266.791c-99.915 0-262.552 181.254-262.552 181.254s162.636 181.335 262.552 181.335c99.996 0 181.335-81.339 181.335-181.335 0-99.956-81.339-181.254-181.335-181.254zM227.098 266.791c-99.996 0-181.335 81.339-181.335 181.335 0 99.956 81.339 181.254 181.335 181.254 99.915 0 262.552-181.254 262.552-181.254s-162.636-181.335-262.552-181.335zM796.875 670.029c-98.899 0-235.927-144.954-284.868-200.562-48.86 55.567-185.969 200.562-284.909 200.562-122.394 0-221.984-99.549-221.984-221.903 0-122.394 99.59-221.984 221.984-221.984 98.899 0 235.927 144.954 284.868 200.562 48.86-55.567 185.969-200.562 284.909-200.562 122.394 0 221.984 99.549 221.984 221.903 0 122.394-99.59 221.984-221.984 221.984z" />
<glyph unicode="&#xe078;" glyph-name="left-arrow" d="M513.034 88.939v166.914c0 12.142-9.855 21.997-21.997 21.997h-441.922v340.296h441.922c12.142 0 21.997 9.855 21.997 21.997v166.87l448.654-359.037-448.654-359.037zM1010.653 465.178l-505.846 404.835c-6.643 5.279-15.618 6.291-23.317 2.596-7.611-3.652-12.45-11.307-12.45-19.797v-190.671h-441.922c-12.142 0-21.997-9.811-21.997-21.997v-384.29c0-12.186 9.855-21.997 21.997-21.997h441.922v-190.671c0-8.491 4.839-16.146 12.45-19.797 3.080-1.496 6.335-2.2 9.547-2.2 4.883 0 9.767 1.628 13.77 4.795l505.846 404.791c5.191 4.179 8.227 10.515 8.227 17.202s-3.036 13.022-8.227 17.202z" />
<glyph unicode="&#xe079;" glyph-name="mail-interface" d="M915.763 12.438c0-14.683-12.005-26.688-26.778-26.688h-754.061c-14.728 0-26.688 12.005-26.688 26.688v735.049c0 18.432 1.874 22.672 2.098 23.207 4.909 3.436 30.259 3.57 54.76 3.392l21.065 0.045v-674.575c0-12.318 9.997-22.315 22.315-22.315 12.362 0 22.315 9.997 22.315 22.315v784.052c0 14.683 11.961 26.644 26.688 26.644h631.508c14.772 0 26.778-11.961 26.778-26.644v-871.169zM888.985 954.88h-631.508c-39.319 0-71.318-31.999-71.318-71.273v-64.847l-21.021-0.045c-46.727 0-69.756 0.089-86.224-16.334-14.103-14.103-15.308-34.856-15.308-54.894v-735.049c0-39.319 31.999-71.318 71.318-71.318h754.061c39.363 0 71.407 31.999 71.407 71.318v871.169c0 39.274-32.044 71.273-71.407 71.273zM526.299 589.44h-193.067c-12.318 0-22.315-9.997-22.315-22.315s9.997-22.315 22.315-22.315h193.067c12.318 0 22.315 9.997 22.315 22.315s-9.997 22.315-22.315 22.315zM526.299 474.162h-193.067c-12.318 0-22.315-9.997-22.315-22.315s9.997-22.315 22.315-22.315h193.067c12.318 0 22.315 9.997 22.315 22.315s-9.997 22.315-22.315 22.315zM526.299 358.884h-193.067c-12.318 0-22.315-9.997-22.315-22.315s9.997-22.315 22.315-22.315h193.067c12.318 0 22.315 9.997 22.315 22.315s-9.997 22.315-22.315 22.315zM526.299 243.606h-193.067c-12.318 0-22.315-9.997-22.315-22.315s9.997-22.315 22.315-22.315h193.067c12.318 0 22.315 9.997 22.315 22.315s-9.997 22.315-22.315 22.315zM526.299 128.328h-193.067c-12.318 0-22.315-9.997-22.315-22.315s9.997-22.315 22.315-22.315h193.067c12.318 0 22.315 9.997 22.315 22.315s-9.997 22.315-22.315 22.315zM802.096 589.44h-193.157c-12.318 0-22.315-9.997-22.315-22.315s9.997-22.315 22.315-22.315h193.157c12.318 0 22.315 9.997 22.315 22.315s-9.997 22.315-22.315 22.315zM802.096 474.162h-193.157c-12.318 0-22.315-9.997-22.315-22.315s9.997-22.315 22.315-22.315h193.157c12.318 0 22.315 9.997 22.315 22.315s-9.997 22.315-22.315 22.315zM802.096 358.884h-193.157c-12.318 0-22.315-9.997-22.315-22.315s9.997-22.315 22.315-22.315h193.157c12.318 0 22.315 9.997 22.315 22.315s-9.997 22.315-22.315 22.315zM802.096 243.606h-193.157c-12.318 0-22.315-9.997-22.315-22.315s9.997-22.315 22.315-22.315h193.157c12.318 0 22.315 9.997 22.315 22.315s-9.997 22.315-22.315 22.315zM802.096 128.328h-193.157c-12.318 0-22.315-9.997-22.315-22.315s9.997-22.315 22.315-22.315h193.157c12.318 0 22.315 9.997 22.315 22.315s-9.997 22.315-22.315 22.315zM779.763 712.622h-421.437v77.075h421.437v-77.075zM802.078 834.282h-466.066c-12.318 0-22.315-9.952-22.315-22.315v-121.66c0-12.362 9.997-22.315 22.315-22.315h466.066c12.362 0 22.315 9.952 22.315 22.315v121.66c0 12.362-9.952 22.315-22.315 22.315z" />
<glyph unicode="&#xe07a;" glyph-name="messenger" d="M582.637 482.863h-476.849c-11.699 0-21.193-9.495-21.193-21.193s9.495-21.193 21.193-21.193h476.849c11.699 0 21.193 9.495 21.193 21.193s-9.495 21.193-21.193 21.193zM579.119 315.55h-476.849c-11.699 0-21.193-9.495-21.193-21.193s9.495-21.193 21.193-21.193h476.849c11.699 0 21.193 9.495 21.193 21.193s-9.495 21.193-21.193 21.193zM941.388 769.994c0 11.699-9.495 21.193-21.193 21.193h-476.849c-11.699 0-21.193-9.495-21.193-21.193s9.495-21.193 21.193-21.193h476.849c11.699 0 21.193 9.495 21.193 21.193zM920.839 622.853h-137.756c-11.699 0-21.193-9.495-21.193-21.193s9.495-21.193 21.193-21.193h137.756c11.699 0 21.193 9.495 21.193 21.193s-9.495 21.193-21.193 21.193zM976.493 495.939c0-11.699-9.495-21.193-21.193-21.193h-82.060c-11.741 0-21.193-9.495-21.193-21.193v-115.207l-166.834 131.822c-0.551 0.466-1.272 0.593-1.907 0.975v87.867c0 35.096-28.526 63.58-63.58 63.58h-236.644v243.723c0 11.699 9.495 21.193 21.193 21.193h551.026c11.699 0 21.193-9.495 21.193-21.193v-370.374zM640.918 188.637c0-11.699-9.495-21.193-21.193-21.193h-267.756c-4.79 0-9.41-1.611-13.14-4.578l-166.834-131.822v115.207c0 11.699-9.495 21.193-21.193 21.193h-82.103c-11.699 0-21.193 9.495-21.193 21.193v370.374c0 11.699 9.495 21.193 21.193 21.193h551.026c11.699 0 21.193-9.495 21.193-21.193v-370.374zM955.3 929.893h-551.026c-35.054 0-63.58-28.484-63.58-63.58v-243.723h-271.995c-35.054 0-63.58-28.484-63.58-63.58v-370.374c0-35.054 28.526-63.58 63.58-63.58h60.91v-137.756c0-8.138 4.62-15.513 11.953-19.074 2.925-1.399 6.061-2.119 9.24-2.119 4.663 0 9.325 1.568 13.14 4.578l195.402 154.372h260.381c35.054 0 63.58 28.526 63.58 63.58v229.057l176.752-139.706c3.815-3.009 8.477-4.578 13.182-4.578 3.137 0 6.273 0.721 9.198 2.119 7.333 3.518 11.995 10.936 11.995 19.074v137.756h60.867c35.054 0 63.58 28.526 63.58 63.58v370.374c0 35.096-28.526 63.58-63.58 63.58z" />
<glyph unicode="&#xe07b;" glyph-name="envelope-red" d="M136.443-17.531c-4.962 0-9.8 1.075-14.183 3.060-0.124 0.041-0.207 0.165-0.331 0.207-4.218 1.943-8.022 4.672-11.206 8.104-0.041 0.041-0.083 0.124-0.124 0.165l281.094 250.661c2.274 1.158 4.466 2.564 6.244 4.548 0.579 0.662 0.786 1.489 1.282 2.192l112.801 100.562 401.338-357.962c-0.124-0.124-0.165-0.248-0.248-0.372-2.357-2.522-5.334-4.3-8.311-5.996-1.158-0.662-2.026-1.695-3.267-2.233-4.342-1.861-9.056-2.936-14.059-2.936h-751.031zM100.965 486.395l249.792-222.791-249.792-222.791v445.582zM513.716 907.002l409.318-351.057v-14.1l-280.928-250.495-116.316 103.746c-7.856 6.988-19.682 6.988-27.539 0l-116.399-103.787-280.887 250.536v14.059l412.75 351.098zM673.201 263.646l249.834 222.791v-445.665l-249.834 222.874zM964.384 565.455c0 6.037-2.688 11.743-7.236 15.671l-429.911 368.755c-7.732 6.657-19.103 6.657-26.877 0.041l-433.467-368.755c-4.631-3.928-7.278-9.676-7.278-15.713v-547.508c0-9.552 1.943-18.649 5.169-27.084 0-0.041 0-0.083 0-0.124s0.041-0.041 0.041-0.083c2.729-7.071 6.492-13.521 11.040-19.393 0.413-0.579 0.868-1.075 1.323-1.613 9.014-11.040 20.881-19.434 34.651-24.107 1.199-0.455 2.398-0.786 3.639-1.158 6.699-1.902 13.645-3.267 20.964-3.267h751.031c7.319 0 14.266 1.365 20.964 3.267 1.282 0.372 2.522 0.744 3.804 1.199 13.687 4.672 25.513 13.025 34.485 23.983 0.496 0.62 0.992 1.158 1.447 1.778 4.548 5.913 8.311 12.405 10.999 19.476 0 0 0 0 0 0s0 0 0 0.041c3.225 8.435 5.21 17.532 5.21 27.084v547.508z" />
<glyph unicode="&#xe07c;" glyph-name="finans-question" d="M977.92 547.001v-177.521h-931.84v491.52h931.84v-313.999zM977.92 258.272c-0.786 0-1.442 0.459-2.261 0.459h-929.589v69.796h931.84v-70.248zM977.92 148.581c-0.786 0-1.442 0.459-2.261 0.459h-929.589v68.731h929.589c0.819 0 1.475 0.36 2.261 0.459v-69.632zM977.92 35.001h-931.84v73.073h929.589c0.819 0 1.475 0.36 2.261 0.459v-73.522zM998.4 901.96h-972.8c-11.305 0-20.48-9.175-20.48-20.48v-866.959c0-11.305 9.175-20.48 20.48-20.48h972.8c11.305 0 20.48 9.175 20.48 20.48v866.959c0 11.305-9.175 20.48-20.48 20.48zM143.358 750.919h227.82c11.344 0 20.48 9.175 20.48 20.48s-9.136 20.48-20.48 20.48h-227.82c-11.305 0-20.48-9.175-20.48-20.48s9.175-20.48 20.48-20.48zM652.717 750.919h227.901c11.344 0 20.48 9.175 20.48 20.48s-9.136 20.48-20.48 20.48h-227.901c-11.305 0-20.48-9.175-20.48-20.48s9.175-20.48 20.48-20.48zM143.358 438.597h227.82c11.344 0 20.48 9.175 20.48 20.48s-9.136 20.48-20.48 20.48h-227.82c-11.305 0-20.48-9.175-20.48-20.48s9.175-20.48 20.48-20.48zM652.717 438.597h227.901c11.344 0 20.48 9.175 20.48 20.48s-9.136 20.48-20.48 20.48h-227.901c-11.305 0-20.48-9.175-20.48-20.48s9.175-20.48 20.48-20.48zM527.235 694.722c26.46 0 40.96-22.036 40.96-47.802 0-29.491-15.358-49.683-41.819-49.683-17.901 0-38.666 1.868-38.666 1.868v57.098c0 3.211 0 37.559 0 37.559s22.489 0.95 39.567 0.95zM463.013 488.274h24.74v38.214h24.288v25.395h-24.288v27.977c28.344-2.916 24.74-0.95 42.926-0.95 32.44 0 62.587 22.816 62.587 69.059 0 39.076-25.028 65.333-58.327 65.333-22.446 0-50.587-2.916-50.587-2.916h-22.485c0.557-12.206 1.147-25.477 1.147-41.982v-116.533h-25.847v-25.395h25.847v-38.214z" />
<glyph unicode="&#xe07d;" glyph-name="flag" d="M769.788 125.379c-80.945 0-162.203 38.263-248.283 78.802-86.705 40.852-176.357 83.088-267.303 83.088-60.184 0-114.967-18.261-166.356-55.675v610.194c51.389 46.031 105.948 68.444 166.356 68.444 80.945 0 162.203-38.263 248.283-78.802 86.705-40.852 176.357-83.088 267.303-83.088 52.907 0 101.617 14.109 147.514 42.906-36.12-119.655-73.534-231.719-113.716-340.792-2.009-5.447-1.831-11.43 0.536-16.743 44.424-100.858 85.544-181.491 125.414-245.694-49.514-42.147-101.93-62.64-159.748-62.64zM848.59 443.491c46.701 127.423 89.696 258.999 131.308 401.87 2.813 9.688-1.161 20.047-9.778 25.27-8.572 5.313-19.6 4.152-26.967-2.768-53.487-50.407-110.189-74.873-173.365-74.873-80.945 0-162.203 38.307-248.283 78.802-86.705 40.852-176.357 83.088-267.303 83.088-60.184 0-114.967-18.618-166.356-56.032v31.967c0 12.323-10.001 22.324-22.324 22.324s-22.324-10.001-22.324-22.324v-967.372c0-12.367 10.001-22.324 22.324-22.324s22.324 9.956 22.324 22.324v209.976c51.434 46.076 105.903 69.203 166.356 69.203 80.945 0 162.203-38.263 248.283-78.802 86.705-40.852 176.357-83.088 267.303-83.088 75.097 0 141.844 28.485 203.993 87.017 7.858 7.367 9.287 19.288 3.438 28.351-40.674 63.042-82.776 144.032-128.629 247.39z" />
<glyph unicode="&#xe07e;" glyph-name="investor-domain" d="M516.313 903.346c80.736 0 146.419-77.527 146.419-172.819s-65.683-172.819-146.419-172.819c-80.781 0-146.51 77.527-146.51 172.819s65.728 172.819 146.51 172.819zM516.313 506.219c109.125 0 197.953 100.627 197.953 224.308s-88.828 224.353-197.953 224.353c-109.17 0-198.043-100.672-198.043-224.353s88.873-224.308 198.043-224.308zM827.496-5.493l-634.272-9.9-1.447 11.301-8.453 182.222c-2.938 43.578 37.159 123.003 90.41 142.712 62.88 22.467 130.507 34.491 198.812 37.565l22.874-22.874-44.708-230.772 53.658-98.864 53.658 98.864-44.753 230.772 23.009 23.009c73.865-3.029 147.233-16.319 214.95-40.549 53.613-19.755 92.038-90.546 88.964-134.214l-12.703-189.274zM762.943 357.82c-60.439 21.653-123.274 35.17-186.742 40.639l0.090 0.090-71.921 26.671-71.921-26.671 1.808-1.853c-58.857-6.148-117.172-18.805-173.452-38.922-70.249-25.993-125.534-107.769-120.788-178.65l14.556-214.001c0.995-13.516 12.205-24.004 25.722-24.004h663.384c13.516 0 24.727 10.488 25.722 24.004l14.556 213.91c4.973 70.927-50.313 152.748-121.014 178.786z" />
<glyph unicode="&#xe07f;" glyph-name="domain-ru" d="M974.804 261.6h-925.607v572.995h925.607v-572.995zM601.962 61.405h-180.009v156.119h180.009v-156.119zM996.842 878.672h-969.683c-12.207 0-22.038-9.829-22.038-22.038v-617.071c0-12.165 9.831-22.038 22.038-22.038h350.719v-156.119h-28.431c-12.165 0-22.038-9.829-22.038-22.038 0-12.165 9.873-22.038 22.038-22.038h324.978c12.207 0 22.038 9.873 22.038 22.038 0 12.209-9.831 22.038-22.038 22.038h-28.385v156.119h350.803c12.165 0 22.038 9.873 22.038 22.038v617.071c0 12.209-9.873 22.038-22.038 22.038zM318.427 442.869c15.737 0 26.227 10.975 26.227 25.917 0 15.471-10.49 26.226-25.917 26.226s-26.227-10.975-26.227-26.226c0-14.942 10.801-25.917 25.917-25.917zM416.865 604.071c3.209 0.575 9.344 1.41 20.099 1.41 20.409-0.317 32.617-9.036 32.617-26.49 0-16.617-13.135-27.327-35.261-27.327h-17.454v52.407zM416.865 520.634h13.399c18.071-0.282 26.488-6.744 31.735-30.413 5.818-23.405 10.49-38.92 13.71-44.253h45.395c-3.787 7.317-9.87 32.132-15.998 53.553-4.937 17.454-12.518 30.148-26.224 35.526v0.793c16.925 5.95 34.644 22.567 34.644 46.809 0 17.454-6.393 30.721-18.029 39.713-13.97 10.711-34.337 14.942-63.47 14.942-23.579 0-44.87-1.675-59.105-3.923v-187.413h43.943v74.666zM622.445 442.869c51.263 0 81.852 27.9 81.852 86.522v106.533h-44.253v-109.398c0-33.498-12.828-49.278-36.143-49.278-22.655 0-35.483 16.617-35.483 49.278v109.398h-44.56v-105.96c0-60.605 29.091-87.095 78.587-87.095z" />
<glyph unicode="&#xe080;" glyph-name="domains" d="M974.804 261.6h-925.607v572.995h925.607v-572.995zM601.96 61.405h-180.009v156.119h180.009v-156.119zM996.842 878.672h-969.683c-12.165 0-22.038-9.873-22.038-22.038v-617.071c0-12.165 9.873-22.038 22.038-22.038h350.717v-156.119h-28.385c-12.209 0-22.038-9.873-22.038-22.038s9.829-22.038 22.038-22.038h324.976c12.165 0 22.038 9.873 22.038 22.038s-9.873 22.038-22.038 22.038h-28.429v156.119h350.805c12.165 0 22.038 9.873 22.038 22.038v617.071c0 12.165-9.873 22.038-22.038 22.038zM137.35 746.442h749.301v-396.689h-749.301v396.689zM115.311 305.677h793.377c12.165 0 22.038 9.873 22.038 22.038v440.765c0 12.165-9.873 22.038-22.038 22.038h-793.377c-12.165 0-22.038-9.873-22.038-22.038v-440.765c0-12.165 9.873-22.038 22.038-22.038z" />
<glyph unicode="&#xe081;" glyph-name="ECP-SCZY" d="M903.555 354.215l-64.995 73.995-55.454-63.12-55.413 63.12-67.995-77.453h-125.283l-5.666-11.832c-42.622-89.077-130.199-144.406-228.483-144.406-139.782 0-253.482 113.742-253.482 253.482 0 139.782 113.7 253.482 253.482 253.482 98.285 0 185.862-55.329 228.483-144.406l5.666-11.832h345.642c53.579 0 97.16-43.622 97.16-97.243 0-44.58-31.039-83.161-73.661-93.785zM880.057 586.907h-319.727c-51.080 95.326-151.739 156.239-260.065 156.239-162.78 0-295.145-132.407-295.145-295.145s132.365-295.145 295.145-295.145c108.325 0 208.985 60.912 260.065 156.239h108.784l10.999 1.792 47.58 54.204 55.413-63.162 55.454 63.162 42.455-48.288 7.291-7.249 10.208 1.375c68.578 9.166 120.366 68.12 120.366 137.073 0 76.578-62.287 138.907-138.823 138.907zM222.050 409.836c-21.040 0-38.164 17.124-38.164 38.164s17.124 38.164 38.164 38.164c21.040 0 38.164-17.124 38.164-38.164s-17.124-38.164-38.164-38.164zM222.050 527.828c-44.038 0-79.828-35.789-79.828-79.828s35.789-79.828 79.828-79.828c44.038 0 79.828 35.789 79.828 79.828s-35.789 79.828-79.828 79.828z" />
<glyph unicode="&#xe082;" glyph-name="ECP-service" d="M964.96 427.549l-96.133-96.178c-8.271 17.717-19.57 33.897-33.536 47.908-64.179 64.179-176.176 64.179-240.401 0-66.213-66.258-66.213-174.097 0.090-240.446 13.921-13.875 30.146-25.175 47.818-33.445l-110.054-110.054c-5.514-5.559-12.926-8.633-20.7-8.633-7.909 0-15.276 3.073-20.836 8.633l-432.26 432.26c-5.559 5.559-8.633 12.881-8.633 20.745s3.073 15.186 8.678 20.79l110.054 110.144c8.271-17.853 19.57-34.033 33.491-47.954 64.179-64.27 176.086-64.27 240.356 0 66.258 66.258 66.258 174.097 0 240.401-13.875 13.921-30.101 25.22-47.863 33.536l96.178 96.133c11.118 11.164 30.463 11.164 41.536 0l148.878-148.787c6.689-6.689 16.994-8.542 25.4-4.52 8.587 3.977 13.83 12.836 13.062 22.282-2.847 36.88 10.079 72.631 35.57 98.077 47.14 47.14 129.262 47.14 176.448 0 48.677-48.632 48.677-127.771 0-176.402-25.581-25.581-61.332-38.191-98.122-35.57-9.265 0.542-18.35-4.429-22.327-13.062-3.932-8.542-2.124-18.711 4.565-25.4l148.832-148.968c5.559-5.514 8.633-12.881 8.633-20.7s-3.073-15.186-8.723-20.79zM996.914 501.083l-114.031 114.121c30.643 7.005 58.665 22.372 81.218 44.88 66.213 66.213 66.213 174.052 0 240.31-64.315 64.315-176.357 64.179-240.401 0.045-22.418-22.418-37.784-50.575-44.835-81.173l-114.121 114.076c-28.157 28.203-77.331 28.203-105.489 0l-121.94-121.895c-5.876-5.876-8-14.418-5.695-22.372 2.35-7.955 8.904-13.966 16.949-15.728 23.954-5.062 45.468-16.678 62.371-33.581 48.586-48.677 48.632-127.861 0-176.493-47.14-47.14-129.308-47.23-176.448 0-16.904 16.904-28.519 38.462-33.581 62.417-1.717 8.045-7.774 14.599-15.728 16.949-7.864 2.26-16.497 0.181-22.372-5.695l-135.725-135.816c-14.147-14.101-21.966-32.858-21.966-52.79s7.819-38.688 21.92-52.744l432.215-432.26c14.056-14.056 32.813-21.83 52.744-21.83h0.045c19.887 0 38.598 7.774 52.699 21.83l135.725 135.816c5.876 5.876 8.045 14.508 5.74 22.463-2.395 7.909-8.904 13.921-17.039 15.638-23.728 5.062-45.242 16.632-62.281 33.581-48.677 48.722-48.677 127.816 0 176.493 47.14 47.14 129.308 47.14 176.448 0 16.994-17.039 28.609-38.598 33.581-62.326 1.672-8.135 7.729-14.644 15.683-17.039 7.955-2.35 16.587-0.136 22.418 5.695l121.805 121.85c14.282 14.147 22.056 32.903 22.056 52.835s-7.774 38.688-21.966 52.744z" />
<glyph unicode="&#xe083;" glyph-name="ECP-support-trades" d="M500.468 362.346l-421.204 183.539 421.204 183.539 421.12-183.539-421.12-183.539zM826.708 263.064c-202.244-130.978-450.236-130.978-652.48 0v195.304l317.818-138.469c2.666-1.185 5.544-1.777 8.422-1.777s5.755 0.592 8.464 1.777l317.776 138.469v-195.304zM997.72 569.076c-5.078 0-9.564-2.031-13.204-5.036-0.592 0.296-0.846 0.973-1.481 1.227l-474.104 206.603c-5.459 2.37-11.511 2.37-16.885 0l-474.231-206.603c-7.702-3.343-12.696-10.961-12.696-19.382s4.994-16.039 12.696-19.382l114.093-49.725v-225.097c0-7.025 3.513-13.669 9.353-17.563 110.792-74.482 234.957-111.765 359.207-111.765 124.207 0 248.415 37.283 359.207 111.765 5.84 3.893 9.353 10.538 9.353 17.563v225.139l107.533 46.848v-286.121c0-11.722 9.48-21.16 21.16-21.16s21.16 9.437 21.16 21.16v310.37c0 11.68-9.48 21.16-21.16 21.16z" />
<glyph unicode="&#xe084;" glyph-name="choise-2users" d="M338.853 851.555c71.552 0 129.771-68.721 129.771-153.15 0-84.474-58.219-153.15-129.771-153.15-71.598 0-129.862 68.675-129.862 153.15 0 84.429 58.264 153.15 129.862 153.15zM338.853 499.594c96.712 0 175.433 89.178 175.433 198.812 0 109.588-78.721 198.812-175.433 198.812-96.757 0-175.524-89.223-175.524-198.812 0-109.634 78.767-198.812 175.524-198.812zM607.65 44.446h-545.248l-11.461 168.355c-2.603 38.584 29.908 94.885 77.077 112.374 133.195 47.625 281.003 47.534 413.879 0 47.534-17.488 79.954-73.698 77.214-112.374l-11.461-168.355zM557.422 368.097c-143.104 51.233-301.414 51.324-445.020-0.046-62.237-23.014-111.232-95.525-107.031-158.309l12.922-189.679c0.822-11.963 10.776-21.278 22.785-21.278h587.896c11.963 0 21.918 9.315 22.785 21.278l12.922 189.588c4.429 62.876-44.566 135.387-107.26 158.446zM923.895 323.814c-58.538 20.913-119.862 32.1-182.328 33.15-13.059-0.913-23.014-9.817-23.242-22.42s9.817-23.014 22.42-23.242c57.488-0.959 113.926-11.233 167.579-30.411 39.178-14.429 66.94-62.328 64.748-93.972l-9.772-142.465h-212.784c-12.603 0-22.831-10.228-22.831-22.831 0-12.648 10.228-22.831 22.831-22.831h234.108c12.009 0 21.963 9.269 22.785 21.233l11.233 163.789c3.836 55.525-39.452 119.634-94.748 139.999zM708.252 611.428c0 63.059 43.15 114.383 96.209 114.383s96.164-51.324 96.164-114.383c0-63.059-43.105-114.337-96.164-114.337s-96.209 51.278-96.209 114.337zM946.287 611.428c0 88.264-63.653 160.045-141.826 160.045-78.219 0-141.871-71.78-141.871-160.045 0-88.219 63.653-159.999 141.871-159.999 78.173 0 141.826 71.78 141.826 159.999z" />
<glyph unicode="&#xe085;" glyph-name="cloud" d="M748.162 772.551c-12.139 0-24.207-1.231-36.1-3.624-20.231 107.314-113.612 185.953-224.973 185.953-126.209 0-228.913-102.705-228.913-228.913 0-7.917 0.422-15.868 1.302-23.855h-18.894c-81.629 0-148.094-66.464-148.094-148.164 0-81.664 66.464-148.094 148.094-148.094h104.253c9.746 0 17.592 7.881 17.592 17.592 0 9.746-7.846 17.592-17.592 17.592h-104.253c-62.242 0-112.909 50.666-112.909 112.909 0 62.313 50.666 112.979 112.909 112.979h39.372c5.278 0 10.274 2.357 13.617 6.474 3.343 4.046 4.68 9.394 3.659 14.602-2.569 12.667-3.87 25.439-3.87 37.965 0 106.822 86.907 193.728 193.728 193.728 100.101 0 182.997-75.014 192.849-174.482 0.528-5.348 3.413-10.098 7.881-12.983 4.468-2.956 9.957-3.694 15.024-2.041 14.778 4.785 30.013 7.178 45.318 7.178 81.7 0 148.164-66.429 148.164-148.094 0-42.116-17.346-81.101-49.998-110.903-21.498-23.715-52.003-37.331-83.67-37.331h-83.564c-9.711 0-17.592-7.846-17.592-17.592 0-9.711 7.881-17.592 17.592-17.592h83.564c41.589 0 81.594 17.804 108.546 47.676 38.316 34.868 60.307 84.338 60.307 135.744 0 101.051-82.227 183.279-183.349 183.279zM624.184 616.323c5.735 7.846 3.976 18.859-3.87 24.559l-97.92 77.724c-0.317 0.246-0.739 0.141-1.091 0.352-2.709 1.759-5.77 3.026-9.254 3.026-3.518 0-6.58-1.302-9.289-3.026-0.352-0.211-0.739-0.106-1.056-0.352l-97.99-77.724c-7.881-5.7-9.605-16.713-3.906-24.559 5.735-7.846 16.748-9.605 24.594-3.87l70.053 56.085v-274.161c0-9.711 7.846-17.592 17.592-17.592 9.711 0 17.592 7.881 17.592 17.592v274.161l69.948-56.085c3.131-2.287 6.756-3.378 10.344-3.378 5.454 0 10.802 2.498 14.25 7.248zM196.412 187.949l7.178-28.254 47.711 25.755h0.809v-239.715h35.889v274.302h-31.666l-59.92-32.089zM477.136-30.205c-33.742 0-55.698 40.498-55.698 111.853 0 74.663 23.644 114.351 56.155 114.351 38.387 0 55.698-44.333 55.698-111.853 0-70.018-18.155-114.351-56.155-114.351zM479.669 224.675c-55.698 0-95.386-50.631-95.386-142.64 0.88-90.742 37.155-140.916 90.742-140.916 60.764 0 95.351 51.44 95.351 144.716 0 87.364-32.898 138.84-90.707 138.84zM693.745-30.205c-33.778 0-55.698 40.498-55.698 111.853 0 74.663 23.609 114.351 56.12 114.351 38.422 0 55.698-44.333 55.698-111.853 0-70.018-18.155-114.351-56.12-114.351zM696.243 224.675c-55.698 0-95.351-50.631-95.351-142.64 0.844-90.742 37.155-140.916 90.707-140.916 60.8 0 95.386 51.44 95.386 144.716 0 87.364-32.898 138.84-90.742 138.84z" />
<glyph unicode="&#xe086;" glyph-name="control-cost" d="M996.277-13.804h-947.161v947.161c0 12.254-9.945 22.198-22.198 22.198s-22.198-9.945-22.198-22.198v-969.36c0-12.254 9.945-22.198 22.198-22.198h969.36c12.254 0 22.198 9.945 22.198 22.198s-9.945 22.198-22.198 22.198zM208.855 328.584h119.339v-185.003h-119.339v185.003zM186.657 99.184h163.693c12.298 0 22.198 9.945 22.198 22.198v229.4c0 12.254-9.9 22.198-22.198 22.198h-163.693c-12.254 0-22.198-9.945-22.198-22.198v-229.4c0-12.254 9.945-22.198 22.198-22.198zM841.776 911.070h119.381v-767.354h-119.381v767.354zM819.578 99.319h163.778c12.298 0 22.198 9.945 22.198 22.198v811.751c0 12.298-9.9 22.198-22.198 22.198h-163.778c-12.254 0-22.198-9.9-22.198-22.198v-811.751c0-12.254 9.945-22.198 22.198-22.198zM525.316 613.434h119.427v-469.896h-119.427v469.896zM503.117 99.141h163.778c12.298 0 22.198 9.945 22.198 22.198v514.293c0 12.254-9.9 22.198-22.198 22.198h-163.778c-12.254 0-22.198-9.945-22.198-22.198v-514.293c0-12.254 9.945-22.198 22.198-22.198z" />
<glyph unicode="&#xe087;" glyph-name="control-panel" d="M26.628 867.897h908.64c11.873 0 21.508 9.636 21.508 21.508s-9.636 21.508-21.508 21.508h-908.64c-11.873 0-21.508-9.636-21.508-21.508s9.636-21.508 21.508-21.508zM26.628 333.802h155.849c11.873 0 21.508 9.636 21.508 21.508s-9.636 21.508-21.508 21.508h-155.849c-11.873 0-21.508-9.636-21.508-21.508s9.636-21.508 21.508-21.508zM275.738 109.771h-249.109c-11.873 0-21.508-9.636-21.508-21.508s9.636-21.508 21.508-21.508h249.109c11.873 0 21.508 9.636 21.508 21.508s-9.636 21.508-21.508 21.508zM275.738 643.866h-249.109c-11.873 0-21.508-9.636-21.508-21.508s9.636-21.508 21.508-21.508h249.109c11.873 0 21.508 9.636 21.508 21.508s-9.636 21.508-21.508 21.508zM975.347 304.271h-52.437c-21.422 0-42.716-15.314-49.039-34.284l-9.077-22.197c-9.593-19.228-5.42-45.081 9.722-60.266l37.037-37.855-58.115-57.341-36.994 37.037c-14.755 14.755-43.963 18.067-58.847 10.453l-22.326-9.249c-20.218-6.883-35.489-28.133-35.489-49.469v-52.394c0-0.258-0.344-0.602-0.688-0.602l-81.56 0.602v52.394c0 21.379-15.357 42.629-34.327 48.953l-22.197 9.12c-6.711 3.355-14.497 5.119-22.541 5.119-14.282 0-28.348-5.592-37.64-14.884l-37.898-37.080-57.298 58.158 37.037 37.037c15.185 15.185 19.357 41.038 10.41 58.675l-9.163 22.412c-6.797 20.347-28.090 35.661-49.555 35.661l-52.996 0.559 0.559 81.603h52.437c21.465 0 42.759 15.357 49.082 34.327l8.947 22.154c9.593 19.142 5.463 45.038-9.722 60.266l-37.037 37.812 58.115 57.384 37.037-36.994c14.712-14.798 43.791-18.196 58.847-10.539l22.197 9.249c20.347 6.84 35.704 28.133 35.704 49.555l0.559 52.953 81.689-0.602v-52.351c0-21.422 15.271-42.716 34.198-48.996l22.283-9.206c18.626-9.292 45.684-4.646 60.137 9.894l37.941 37.037 57.255-58.158-37.123-37.080c-15.099-15.185-19.271-41.081-10.324-58.761l9.206-22.283c6.84-20.304 28.133-35.661 49.555-35.661l52.953-0.602-0.516-81.56zM975.347 429.449h-52.437c-2.925 0-7.829 3.527-9.249 7.657l-10.41 25.122c-1.29 2.538-0.344 8.517 1.678 10.539l37.037 36.994c8.216 8.216 12.776 19.185 12.776 30.843 0 11.701-4.56 22.67-12.733 30.8l-57.341 57.513c-16.475 16.217-44.952 16.346-61.643-0.129l-37.080-37.080c-0.946-0.946-3.828-2.28-7.227-2.28l-29.681 11.485c-2.753 0.903-6.237 5.807-6.237 8.732v52.351c0 24.046-19.616 43.619-43.705 43.619h-81c-24.046 0-43.576-19.573-43.576-43.619v-52.351c0-3.011-3.484-7.786-7.743-9.249l-23.616-9.808c-0.43-0.172-4.216-0.946-4.646-1.161-3.441 0-6.28 1.334-7.27 2.323l-37.123 37.080c-16.346 16.303-45.124 16.346-61.643-0.043l-57.212-57.341c-8.259-8.173-12.776-19.142-12.776-30.843 0-11.658 4.517-22.627 12.733-30.8l36.994-36.994c2.065-2.065 3.054-8.044 1.075-12.088l-10.152-24.993c-0.946-2.753-5.85-6.28-8.775-6.28h-52.437c-24.046 0-43.576-19.573-43.576-43.619v-81c0-24.046 19.53-43.576 43.576-43.576h52.437c2.925 0 7.829-3.527 9.249-7.571l10.367-25.251c1.247-2.538 0.344-8.431-1.721-10.496l-37.037-37.037c-8.216-8.216-12.733-19.142-12.733-30.8s4.517-22.627 12.733-30.843l57.341-57.384c16.389-16.303 45.167-16.346 61.643 0.043l37.080 37.123c0.946 0.903 3.785 2.237 7.184 2.237l29.681-11.442c2.839-0.989 6.366-5.807 6.366-8.732v-52.394c0-24.046 19.53-43.619 43.576-43.619h81c24.089 0 43.705 19.573 43.705 43.619v52.394c0 2.925 3.484 7.743 7.614 9.206l23.616 9.765c0.473 0.172 4.259 0.989 4.732 1.204 3.398 0 6.237-1.334 7.227-2.28l37.123-37.209c16.475-16.217 44.952-16.346 61.686 0.129l57.212 57.341c16.992 16.992 16.992 44.651 0 61.643l-37.080 37.037c-2.022 2.065-2.968 7.958-1.032 11.959l10.281 25.079c0.903 2.753 5.807 6.28 8.732 6.28h52.437c24.003 0 43.533 19.53 43.533 43.576v81c0 24.046-19.53 43.619-43.533 43.619zM658.603 260.080c-46.974 0-85.173 38.285-85.173 85.259 0 47.017 38.199 85.302 85.173 85.302 47.017 0 85.259-38.285 85.259-85.302 0-46.974-38.242-85.259-85.259-85.259zM658.603 473.658c-70.719 0-128.19-57.556-128.19-128.319 0-70.719 57.47-128.276 128.19-128.276 70.762 0 128.276 57.556 128.276 128.276 0 70.762-57.513 128.319-128.276 128.319z" />
<glyph unicode="&#xe088;" glyph-name="cup" d="M977.521 774.625c0-86.358-69.401-156.545-155.305-158.241v238.354h155.305v-80.113zM780.857 578.954c0-148.232-120.604-268.836-268.836-268.836s-268.836 120.604-268.836 268.836v275.784h537.672v-275.784zM46.48 774.625v80.113h155.346v-238.354c-85.903 1.696-155.346 71.883-155.346 158.241zM998.201 896.098h-972.401c-11.415 0-20.68-9.265-20.68-20.68v-100.793c0-109.23 88.095-197.987 196.912-199.642 2.068-160.474 126.436-291.749 284.015-304.901v-121.886h-106.749c-11.415 0-20.68-9.265-20.68-20.68 0-11.457 9.265-20.68 20.68-20.68h254.939c11.457 0 20.68 9.223 20.68 20.68 0 11.415-9.223 20.68-20.68 20.68h-106.831v121.348c162.584 8.065 292.494 141.408 294.603 305.439 108.817 1.613 196.871 90.412 196.871 199.642v100.793c0 11.415-9.265 20.68-20.68 20.68zM830.703 41.261h-647.853c-11.415 0-20.68-9.265-20.68-20.68s9.265-20.68 20.68-20.68h647.853c11.415 0 20.68 9.265 20.68 20.68s-9.265 20.68-20.68 20.68z" />
<glyph unicode="&#xe089;" glyph-name="check" d="M1009.226 885.257c-11.269 9.268-27.803 7.53-37.071-3.686l-593.187-810.715-328.477 344.749c-10.005 10.584-26.697 10.9-37.176 0.895-10.584-10.005-10.953-26.697-0.895-37.176l348.961-366.338c4.95-5.266 11.848-8.215 19.009-8.215 0.369 0 0.685 0 1 0.053 7.53 0.263 14.586 3.791 19.378 9.636l612.143 833.726c9.215 11.269 7.583 27.856-3.686 37.071z" />
<glyph unicode="&#xe08a;" glyph-name="API" d="M858.221 189.448l-177.678-177.678v177.678h177.678zM252.922 790.69h634.56v-559.855h-227.634c-11.423 0-20.694-9.271-20.694-20.694v-227.634h-386.232v808.182zM928.87 811.384c0 11.464-9.271 20.694-20.694 20.694h-675.948c-11.423 0-20.694-9.23-20.694-20.694v-849.57c0-11.423 9.271-20.694 20.694-20.694h427.62c2.773 0 5.463 0.579 7.946 1.614 2.566 1.035 4.801 2.566 6.705 4.47l248.286 248.286c1.904 1.904 3.435 4.18 4.47 6.705 1.035 2.483 1.614 5.173 1.614 7.946v601.243zM371.912 633.722h243.154c11.423 0 20.694 9.271 20.694 20.694s-9.271 20.694-20.694 20.694h-243.154c-11.423 0-20.694-9.271-20.694-20.694s9.271-20.694 20.694-20.694zM371.912 533.725h403.532c11.423 0 20.694 9.271 20.694 20.694s-9.271 20.694-20.694 20.694h-403.532c-11.423 0-20.694-9.271-20.694-20.694s9.271-20.694 20.694-20.694zM371.912 433.649h403.532c11.423 0 20.694 9.271 20.694 20.694s-9.271 20.694-20.694 20.694h-403.532c-11.423 0-20.694-9.271-20.694-20.694s9.271-20.694 20.694-20.694zM540.858 375.047h-168.946c-11.423 0-20.694-9.271-20.694-20.694s9.271-20.694 20.694-20.694h168.946c11.423 0 20.694 9.271 20.694 20.694s-9.271 20.694-20.694 20.694zM812.466 934.186c0 11.423-9.271 20.694-20.694 20.694h-634.56c-34.228 0-62.082-27.854-62.082-62.082v-832.932c0-11.423 9.271-20.694 20.694-20.694s20.694 9.271 20.694 20.694v832.932c0 11.382 9.271 20.694 20.694 20.694h634.56c11.423 0 20.694 9.271 20.694 20.694z" />
<glyph unicode="&#xe08b;" glyph-name="calendary" d="M971.788 562.459h-919.575v207.301h138.593v-54.91c0-12.998 10.549-23.546 23.546-23.546s23.546 10.549 23.546 23.546v54.91h553.337v-54.91c0-12.998 10.549-23.546 23.546-23.546s23.546 10.549 23.546 23.546v54.91h133.46v-207.301zM971.788 47.738h-919.575v467.628h919.575v-467.628zM995.334 816.852h-157.006v54.957c0 13.045-10.549 23.546-23.546 23.546s-23.546-10.502-23.546-23.546v-54.957h-553.337v54.957c0 13.045-10.549 23.546-23.546 23.546s-23.546-10.502-23.546-23.546v-54.957h-162.139c-13.045 0-23.546-10.502-23.546-23.546v-769.115c0-12.998 10.502-23.546 23.546-23.546h966.668c12.998 0 23.546 10.549 23.546 23.546v769.115c0 13.045-10.549 23.546-23.546 23.546zM248.956 419.769h-91.407v-91.359h91.407v91.359zM407.045 419.769h-91.312v-91.359h91.312v91.359zM565.135 419.769h-91.359v-91.359h91.359v91.359zM723.271 419.769h-91.359v-91.359h91.359v91.359zM881.361 419.769h-91.312v-91.359h91.312v91.359zM248.956 273.028h-91.407v-91.359h91.407v91.359zM407.045 273.028h-91.312v-91.359h91.312v91.359zM565.135 273.028h-91.359v-91.359h91.359v91.359zM723.271 273.028h-91.359v-91.359h91.359v91.359zM881.361 273.028h-91.312v-91.359h91.312v91.359z" />
<glyph unicode="&#xe08c;" glyph-name="advertising" d="M534.589 954.88c-11.564 0-20.948-9.385-20.948-20.948s9.385-20.948 20.948-20.948c240.028 0 435.351-195.24 435.351-435.268 0-11.564 9.343-20.948 20.948-20.948 11.564 0 20.948 9.385 20.948 20.948 0 263.113-214.093 477.164-477.248 477.164zM534.589 820.843c-11.564 0-20.948-9.385-20.948-20.948s9.385-20.948 20.948-20.948c166.163 0 301.281-135.16 301.281-301.239 0-11.564 9.385-20.948 20.948-20.948 11.605 0 20.948 9.385 20.948 20.948 0 189.207-153.929 343.136-343.178 343.136zM447.934 144.027c-69.298 101.391-155.647 187.698-256.954 256.87l164.99 343.22c172.197-116.641 318.417-262.862 435.184-435.184l-343.22-164.906zM295.094 48.544c-53.377-53.377-146.43-53.377-199.681 0-26.688 26.605-41.352 62.049-41.352 99.757 0 37.665 14.664 73.11 41.352 99.715l98.248 98.123c76.462-56.226 143.246-123.009 199.555-199.471l-98.123-98.123zM359.028 792.466c-5.028 3.268-11.312 4.315-17.094 2.64-5.824-1.592-10.642-5.656-13.281-11.103l-183.299-381.304c-4.567-9.469-1.424-20.823 7.374-26.605 2.346-1.508 4.399-3.352 6.745-4.902l-93.682-93.514c-34.565-34.565-53.628-80.484-53.628-129.378s19.063-94.855 53.628-129.378c34.523-34.565 80.526-53.67 129.42-53.67 39.928 0 77.551 13.323 108.974 36.786 0.964-3.058 2.43-5.991 4.86-8.421 33.434-33.392 75.666-52.497 115.929-52.497h0.209c28.49 0.042 53.125 9.72 71.225 27.903 8.17 8.212 8.17 21.451-0.084 29.621-8.17 8.128-21.451 8.212-29.621-0.084-12.779-12.779-29.663-15.544-41.646-15.544h-0.084c-28.783 0-61.044 15.041-86.266 40.221-1.718 1.718-3.771 2.849-5.824 3.855l85.344 85.386c1.55-2.346 3.394-4.399 4.902-6.704 4.022-6.117 10.684-9.469 17.513-9.469 3.058 0 6.201 0.67 9.092 2.053l381.346 183.215c5.405 2.64 9.469 7.5 11.061 13.323 1.634 5.782 0.67 12.066-2.64 17.094-126.487 192.517-288.125 354.155-480.474 480.474z" />
<glyph unicode="&#xe600;" glyph-name="title-256" d="M49.003 243.667v39.945l107.544 108.103q49.163 49.722 64.806 70.951t23.464 41.342 7.821 43.297q0 32.682-19.833 51.677-19.833 19.274-55.029 19.274-25.419 0-48.325-8.38-22.626-8.38-50.56-30.447l-24.581 31.565q56.426 46.928 122.907 46.928 57.543 0 90.225-29.609 32.682-29.33 32.682-79.052 0-38.828-21.788-76.817t-81.566-96.091l-89.387-87.432v-2.235h210.060v-43.018h-268.441zM385.601 260.147v44.694q19.553-12.57 48.604-19.833 29.051-6.983 57.264-6.983 49.163 0 76.258 23.185 27.375 23.185 27.375 67.040 0 85.476-104.75 85.476-26.537 0-70.951-8.101l-24.023 15.363 15.363 191.065h203.076v-42.738h-163.411l-10.335-122.628q32.123 6.425 63.968 6.425 64.526 0 101.398-32.123 37.152-31.844 37.152-87.432 0-63.409-40.504-99.443-40.224-36.034-111.175-36.034-68.996 0-105.309 22.067zM708.512 418.251q0 120.393 46.649 179.892 46.928 59.778 138.55 59.778 31.565 0 49.722-5.307v-39.945q-21.509 6.983-49.163 6.983-65.644 0-100.281-41.062-34.638-40.783-37.99-128.494h3.352q30.727 48.046 97.208 48.046 55.029 0 86.594-33.241 31.844-33.241 31.844-90.225 0-63.688-34.917-100.281-34.637-36.313-93.856-36.313-63.409 0-100.56 47.487-37.152 47.766-37.152 132.684zM755.999 385.010q0-28.771 11.173-53.632t31.565-39.386q20.671-14.525 46.928-14.525 39.665 0 61.454 24.861 22.067 25.14 22.067 72.348 0 40.504-20.391 63.688t-60.895 23.185q-25.14 0-46.090-10.335t-33.52-28.492q-12.291-18.157-12.291-37.71z" />
<glyph unicode="&#xe601;" glyph-name="title-RU" d="M95.117 276.094q0 18.866 8.447 28.44 8.729 9.855 24.779 9.855 16.332 0 25.342-9.855 9.292-9.574 9.292-28.44 0-18.303-9.292-28.158t-25.342-9.855q-14.361 0-23.935 8.729-9.292 9.011-9.292 29.285zM262.095 246.246v411.674h112.915q75.746 0 111.788-29.003 36.324-29.003 36.324-87.291 0-81.659-82.785-110.38l111.788-185h-56.598l-99.68 171.202h-85.883v-171.202h-47.869zM309.964 458.559h65.609q50.685 0 74.338 19.992 23.653 20.274 23.653 60.54 0 40.83-24.216 58.851-23.935 18.021-77.154 18.021h-62.23v-157.405zM613.792 392.669v265.251h47.869v-268.63q0-51.53 28.158-79.125t82.785-27.595q52.093 0 80.251 27.595 28.158 27.877 28.158 79.688v268.067h47.869v-266.377q0-70.396-42.519-110.662t-116.857-40.266-115.167 40.548q-40.548 40.548-40.548 111.507z" />
<glyph unicode="&#xe602;" glyph-name="title-SSL" d="M70.931 256.795v45.811q25.14-10.615 54.75-16.76t58.66-6.145q47.487 0 71.51 17.877 24.023 18.157 24.023 50.28 0 21.229-8.659 34.637-8.38 13.687-28.492 25.14-19.833 11.453-60.616 25.978-56.984 20.391-81.566 48.325-24.302 27.933-24.302 72.906 0 47.208 35.476 75.141t93.856 27.933q60.895 0 112.013-22.347l-14.805-41.342q-50.56 21.229-98.326 21.229-37.71 0-58.94-16.201t-21.229-44.973q0-21.229 7.821-34.917 7.821-13.408 26.257-24.861 18.715-11.173 56.984-24.861 64.247-22.905 88.27-49.163 24.302-26.257 24.302-68.158 0-53.912-39.107-84.080t-106.147-30.168q-72.627 0-111.734 18.715zM384.903 256.795v45.811q25.14-10.615 54.75-16.76t58.66-6.145q47.487 0 71.51 17.877 24.023 18.157 24.023 50.28 0 21.229-8.659 34.637-8.38 13.687-28.492 25.14-19.833 11.453-60.616 25.978-56.984 20.391-81.566 48.325-24.302 27.933-24.302 72.906 0 47.208 35.475 75.141t93.856 27.933q60.895 0 112.013-22.347l-14.805-41.342q-50.559 21.229-98.326 21.229-37.71 0-58.94-16.201t-21.229-44.973q0-21.229 7.821-34.917 7.821-13.408 26.258-24.861 18.715-11.173 56.984-24.861 64.247-22.905 88.27-49.163 24.302-26.257 24.302-68.158 0-53.912-39.107-84.080t-106.147-30.168q-72.627 0-111.734 18.715zM725.412 243.667v408.387h47.487v-365.37h180.171v-43.018h-227.658z" />
<glyph unicode="&#xe603;" glyph-name="title-SEO" d="M5.96 256.771v45.75q25.107-10.601 54.677-16.738t58.582-6.137q47.424 0 71.415 17.854 23.991 18.133 23.991 50.213 0 21.201-8.648 34.591-8.369 13.669-28.454 25.107-19.806 11.437-60.535 25.944-56.909 20.364-81.457 48.261-24.27 27.896-24.27 72.809 0 47.145 35.428 75.041t93.732 27.896q60.814 0 111.864-22.317l-14.785-41.287q-50.492 21.201-98.195 21.201-37.66 0-58.861-16.18t-21.201-44.913q0-21.201 7.811-34.87 7.811-13.39 26.223-24.828 18.691-11.159 56.909-24.828 64.162-22.875 88.152-49.098 24.27-26.223 24.27-68.067 0-53.84-39.055-83.968t-106.006-30.128q-72.531 0-111.585 18.691zM346.017 243.659v407.845h227.355v-42.123h-179.931v-131.392h169.052v-41.845h-169.052v-150.082h179.931v-42.402h-227.355zM642.834 448.697q0 99.59 49.098 154.267 49.098 54.956 139.482 54.956 87.873 0 137.25-55.793t49.377-153.988q0-97.916-49.656-153.988-49.377-56.072-137.529-56.072-90.105 0-139.203 54.956-48.819 55.235-48.819 155.662zM693.047 448.139q0-82.852 35.149-125.813 35.428-42.681 102.659-42.681 67.788 0 102.38 42.681t34.591 125.813q0 82.294-34.591 124.697-34.312 42.681-101.822 42.681-67.788 0-103.216-42.96-35.149-42.681-35.149-124.418z" />
<glyph unicode="&#xe604;" glyph-name="title-95" d="M216.045 520.487q0 63.688 35.476 100.56 35.755 36.872 93.856 36.872 41.621 0 72.627-21.509 31.285-21.229 48.046-62.292 16.76-40.783 16.76-96.37 0-239.669-185.478-239.669-32.403 0-51.398 5.587v39.945q22.347-7.263 50.839-7.263 67.040 0 101.119 41.342 34.358 41.621 37.431 127.377h-3.352q-15.363-23.185-40.783-35.475-25.419-12.011-57.264-12.011-54.191 0-86.035 32.403t-31.844 90.504zM261.856 521.046q0-40.224 20.112-63.409 20.112-22.905 61.174-22.905 25.419 0 46.649 10.335 21.509 10.335 33.799 28.213t12.291 37.431q0 29.33-11.453 54.191t-32.123 39.107q-20.391 14.246-46.928 14.246-39.945 0-61.733-25.699t-21.788-71.51zM550.967 260.147v44.694q19.553-12.57 48.604-19.833 29.051-6.983 57.264-6.983 49.163 0 76.258 23.185 27.375 23.185 27.375 67.040 0 85.476-104.75 85.476-26.537 0-70.951-8.101l-24.023 15.363 15.363 191.065h203.076v-42.738h-163.411l-10.335-122.628q32.123 6.425 63.968 6.425 64.526 0 101.398-32.123 37.152-31.844 37.152-87.432 0-63.409-40.504-99.443-40.224-36.034-111.175-36.034-68.996 0-105.309 22.067z" />
<glyph unicode="&#xe605;" glyph-name="title-API" d="M97.451 238.080l165.305 419.84h40.897l164.447-419.84h-50.335l-52.051 132.987h-167.593l-51.479-132.987h-49.191zM215.281 414.825h135.275l-48.619 129.556q-9.438 24.596-19.448 60.345-6.292-27.455-18.018-60.345l-49.191-129.556zM525.585 238.080v418.124h108.392q156.725 0 156.725-121.834 0-63.491-43.471-97.81-43.185-34.033-123.836-34.033h-49.191v-164.447h-48.619zM574.204 444.282h43.757q64.635 0 93.52 20.878t28.886 66.923q0 41.469-27.169 61.775t-84.654 20.306h-54.339v-169.881zM877.93 238.080v418.124h48.619v-418.124h-48.619z" />
</font>
</defs>
</svg>
